<?xml version="1.0" encoding="utf-8" standalone="no"?>
<!DOCTYPE svg PUBLIC "-//W3C//DTD SVG 1.1//EN"
  "http://www.w3.org/Graphics/SVG/1.1/DTD/svg11.dtd">
<svg xmlns:xlink="http://www.w3.org/1999/xlink" width="576pt" height="576pt" viewBox="0 0 576 576" xmlns="http://www.w3.org/2000/svg" version="1.1">
 <metadata>
  <rdf:RDF xmlns:dc="http://purl.org/dc/elements/1.1/" xmlns:cc="http://creativecommons.org/ns#" xmlns:rdf="http://www.w3.org/1999/02/22-rdf-syntax-ns#">
   <cc:Work>
    <dc:type rdf:resource="http://purl.org/dc/dcmitype/StillImage"/>
    <dc:date>2024-06-14T10:26:07.250426</dc:date>
    <dc:format>image/svg+xml</dc:format>
    <dc:creator>
     <cc:Agent>
      <dc:title>Matplotlib v3.6.2, https://matplotlib.org/</dc:title>
     </cc:Agent>
    </dc:creator>
   </cc:Work>
  </rdf:RDF>
 </metadata>
 <defs>
  <style type="text/css">*{stroke-linejoin: round; stroke-linecap: butt}</style>
 </defs>
 <g id="figure_1">
  <g id="patch_1">
   <path d="M 0 576 
L 576 576 
L 576 0 
L 0 0 
z
" style="fill: #ffffff"/>
  </g>
  <g id="axes_1">
   <g id="patch_2">
    <path d="M 72 512.64 
L 518.4 512.64 
L 518.4 69.12 
L 72 69.12 
z
" style="fill: #ffffff"/>
   </g>
   <g id="PathCollection_1">
    <path d="M 92.290909 100.754165 
C 95.333893 100.754165 98.252654 99.545175 100.404369 97.39346 
C 102.556084 95.241745 103.765075 92.322984 103.765075 89.28 
C 103.765075 86.237016 102.556084 83.318255 100.404369 81.16654 
C 98.252654 79.014825 95.333893 77.805835 92.290909 77.805835 
C 89.247925 77.805835 86.329164 79.014825 84.177449 81.16654 
C 82.025734 83.318255 80.816744 86.237016 80.816744 89.28 
C 80.816744 92.322984 82.025734 95.241745 84.177449 97.39346 
C 86.329164 99.545175 89.247925 100.754165 92.290909 100.754165 
z
" clip-path="url(#pef726b205d)" style="fill: #a3aed0; fill-opacity: 0.8; stroke: #ffffff; stroke-opacity: 0.8; stroke-width: 1.441454"/>
    <path d="M 201.730794 418.530341 
C 204.163013 418.530341 206.495942 417.56401 208.21578 415.844171 
C 209.935619 414.124333 210.901949 411.791404 210.901949 409.359185 
C 210.901949 406.926966 209.935619 404.594037 208.21578 402.874199 
C 206.495942 401.15436 204.163013 400.18803 201.730794 400.18803 
C 199.298575 400.18803 196.965646 401.15436 195.245808 402.874199 
C 193.525969 404.594037 192.559638 406.926966 192.559638 409.359185 
C 192.559638 411.791404 193.525969 414.124333 195.245808 415.844171 
C 196.965646 417.56401 199.298575 418.530341 201.730794 418.530341 
z
" clip-path="url(#pef726b205d)" style="fill: #d4d7e8; fill-opacity: 0.8; stroke: #ffffff; stroke-opacity: 0.8; stroke-width: 1.441454"/>
    <path d="M 181.129237 311.003005 
C 184.073873 311.003005 186.898302 309.833088 188.980474 307.750916 
C 191.062646 305.668744 192.232563 302.844315 192.232563 299.899679 
C 192.232563 296.955043 191.062646 294.130615 188.980474 292.048442 
C 186.898302 289.96627 184.073873 288.796354 181.129237 288.796354 
C 178.184601 288.796354 175.360173 289.96627 173.278 292.048442 
C 171.195828 294.130615 170.025912 296.955043 170.025912 299.899679 
C 170.025912 302.844315 171.195828 305.668744 173.278 307.750916 
C 175.360173 309.833088 178.184601 311.003005 181.129237 311.003005 
z
" clip-path="url(#pef726b205d)" style="fill: #bdc4dd; fill-opacity: 0.8; stroke: #ffffff; stroke-opacity: 0.8; stroke-width: 1.441454"/>
    <path d="M 359.390745 409.232364 
C 366.653631 409.232364 373.620026 406.346789 378.755662 401.211153 
C 383.891298 396.075517 386.776873 389.109122 386.776873 381.846236 
C 386.776873 374.58335 383.891298 367.616956 378.755662 362.48132 
C 373.620026 357.345684 366.653631 354.460108 359.390745 354.460108 
C 352.127859 354.460108 345.161464 357.345684 340.025828 362.48132 
C 334.890192 367.616956 332.004617 374.58335 332.004617 381.846236 
C 332.004617 389.109122 334.890192 396.075517 340.025828 401.211153 
C 345.161464 406.346789 352.127859 409.232364 359.390745 409.232364 
z
" clip-path="url(#pef726b205d)" style="fill: #d7daea; fill-opacity: 0.8; stroke: #ffffff; stroke-opacity: 0.8; stroke-width: 1.441454"/>
    <path d="M 415.132062 408.802282 
C 419.116399 408.802282 422.938085 407.219288 425.755437 404.401936 
C 428.572789 401.584584 430.155783 397.762898 430.155783 393.778561 
C 430.155783 389.794224 428.572789 385.972538 425.755437 383.155186 
C 422.938085 380.337834 419.116399 378.75484 415.132062 378.75484 
C 411.147724 378.75484 407.326039 380.337834 404.508687 383.155186 
C 401.691335 385.972538 400.108341 389.794224 400.108341 393.778561 
C 400.108341 397.762898 401.691335 401.584584 404.508687 404.401936 
C 407.326039 407.219288 411.147724 408.802282 415.132062 408.802282 
z
" clip-path="url(#pef726b205d)" style="fill: #e5e6f1; fill-opacity: 0.8; stroke: #ffffff; stroke-opacity: 0.8; stroke-width: 1.441454"/>
    <path d="M 331.301521 175.201389 
C 334.616647 175.201389 337.79644 173.884276 340.140588 171.540128 
C 342.484736 169.19598 343.801849 166.016187 343.801849 162.701061 
C 343.801849 159.385935 342.484736 156.206142 340.140588 153.861994 
C 337.79644 151.517847 334.616647 150.200733 331.301521 150.200733 
C 327.986396 150.200733 324.806603 151.517847 322.462455 153.861994 
C 320.118307 156.206142 318.801194 159.385935 318.801194 162.701061 
C 318.801194 166.016187 320.118307 169.19598 322.462455 171.540128 
C 324.806603 173.884276 327.986396 175.201389 331.301521 175.201389 
z
" clip-path="url(#pef726b205d)" style="fill: #6377b0; fill-opacity: 0.8; stroke: #ffffff; stroke-opacity: 0.8; stroke-width: 1.441454"/>
    <path d="M 273.514887 439.479864 
C 279.607974 439.479864 285.452323 437.059055 289.760786 432.750593 
C 294.069249 428.44213 296.490058 422.59778 296.490058 416.504694 
C 296.490058 410.411607 294.069249 404.567257 289.760786 400.258794 
C 285.452323 395.950332 279.607974 393.529523 273.514887 393.529523 
C 267.421801 393.529523 261.577451 395.950332 257.268988 400.258794 
C 252.960525 404.567257 250.539716 410.411607 250.539716 416.504694 
C 250.539716 422.59778 252.960525 428.44213 257.268988 432.750593 
C 261.577451 437.059055 267.421801 439.479864 273.514887 439.479864 
z
" clip-path="url(#pef726b205d)" style="fill: #95a2c9; fill-opacity: 0.8; stroke: #ffffff; stroke-opacity: 0.8; stroke-width: 1.441454"/>
    <path d="M 421.939497 460.750996 
C 424.896536 460.750996 427.73286 459.576152 429.823802 457.48521 
C 431.914744 455.394268 433.089588 452.557944 433.089588 449.600906 
C 433.089588 446.643867 431.914744 443.807543 429.823802 441.716601 
C 427.73286 439.625659 424.896536 438.450815 421.939497 438.450815 
C 418.982459 438.450815 416.146135 439.625659 414.055193 441.716601 
C 411.964251 443.807543 410.789407 446.643867 410.789407 449.600906 
C 410.789407 452.557944 411.964251 455.394268 414.055193 457.48521 
C 416.146135 459.576152 418.982459 460.750996 421.939497 460.750996 
z
" clip-path="url(#pef726b205d)" style="fill: #d9dceb; fill-opacity: 0.8; stroke: #ffffff; stroke-opacity: 0.8; stroke-width: 1.441454"/>
    <path d="M 498.109091 493.457771 
C 501.022303 493.457771 503.816589 492.30034 505.876541 490.240388 
C 507.936492 488.180436 509.093924 485.38615 509.093924 482.472938 
C 509.093924 479.559727 507.936492 476.76544 505.876541 474.705489 
C 503.816589 472.645537 501.022303 471.488106 498.109091 471.488106 
C 495.195879 471.488106 492.401593 472.645537 490.341641 474.705489 
C 488.281689 476.76544 487.124258 479.559727 487.124258 482.472938 
C 487.124258 485.38615 488.281689 488.180436 490.341641 490.240388 
C 492.401593 492.30034 495.195879 493.457771 498.109091 493.457771 
z
" clip-path="url(#pef726b205d)" style="fill: #e3e4f0; fill-opacity: 0.8; stroke: #ffffff; stroke-opacity: 0.8; stroke-width: 1.441454"/>
    <path d="M 485.451787 509.234926 
C 489.895245 509.234926 494.157309 507.469521 497.299308 504.327522 
C 500.441308 501.185522 502.206712 496.923458 502.206712 492.48 
C 502.206712 488.036542 500.441308 483.774478 497.299308 480.632478 
C 494.157309 477.490479 489.895245 475.725074 485.451787 475.725074 
C 481.008328 475.725074 476.746264 477.490479 473.604265 480.632478 
C 470.462265 483.774478 468.696861 488.036542 468.696861 492.48 
C 468.696861 496.923458 470.462265 501.185522 473.604265 504.327522 
C 476.746264 507.469521 481.008328 509.234926 485.451787 509.234926 
z
" clip-path="url(#pef726b205d)" style="fill: #e5e6f1; fill-opacity: 0.8; stroke: #ffffff; stroke-opacity: 0.8; stroke-width: 1.441454"/>
    <path d="M 313.29366 290.350461 
C 316.198487 290.350461 318.984731 289.196361 321.038754 287.142338 
C 323.092777 285.088315 324.246877 282.302071 324.246877 279.397244 
C 324.246877 276.492417 323.092777 273.706173 321.038754 271.65215 
C 318.984731 269.598127 316.198487 268.444027 313.29366 268.444027 
C 310.388833 268.444027 307.602589 269.598127 305.548566 271.65215 
C 303.494543 273.706173 302.340443 276.492417 302.340443 279.397244 
C 302.340443 282.302071 303.494543 285.088315 305.548566 287.142338 
C 307.602589 289.196361 310.388833 290.350461 313.29366 290.350461 
z
" clip-path="url(#pef726b205d)" style="fill: #d3d7e8; fill-opacity: 0.8; stroke: #ffffff; stroke-opacity: 0.8; stroke-width: 1.441454"/>
    <path d="M 323.013701 475.509333 
C 325.941589 475.509333 328.749952 474.346071 330.820281 472.275741 
C 332.89061 470.205412 334.053872 467.397049 334.053872 464.469161 
C 334.053872 461.541274 332.89061 458.73291 330.820281 456.662581 
C 328.749952 454.592252 325.941589 453.42899 323.013701 453.42899 
C 320.085813 453.42899 317.27745 454.592252 315.207121 456.662581 
C 313.136792 458.73291 311.973529 461.541274 311.973529 464.469161 
C 311.973529 467.397049 313.136792 470.205412 315.207121 472.275741 
C 317.27745 474.346071 320.085813 475.509333 323.013701 475.509333 
z
" clip-path="url(#pef726b205d)" style="fill: #8694c1; fill-opacity: 0.8; stroke: #ffffff; stroke-opacity: 0.8; stroke-width: 1.441454"/>
    <path d="M 210.692413 244.213381 
C 213.098775 244.213381 215.406902 243.257324 217.108456 241.555769 
C 218.81001 239.854215 219.766068 237.546088 219.766068 235.139727 
C 219.766068 232.733366 218.81001 230.425239 217.108456 228.723684 
C 215.406902 227.02213 213.098775 226.066072 210.692413 226.066072 
C 208.286052 226.066072 205.977925 227.02213 204.276371 228.723684 
C 202.574816 230.425239 201.618759 232.733366 201.618759 235.139727 
C 201.618759 237.546088 202.574816 239.854215 204.276371 241.555769 
C 205.977925 243.257324 208.286052 244.213381 210.692413 244.213381 
z
" clip-path="url(#pef726b205d)" style="fill: #e4e5f1; fill-opacity: 0.8; stroke: #ffffff; stroke-opacity: 0.8; stroke-width: 1.441454"/>
    <path d="M 307.335884 157.862287 
C 309.979562 157.862287 312.515318 156.811942 314.384681 154.94258 
C 316.254044 153.073217 317.304388 150.537461 317.304388 147.893782 
C 317.304388 145.250104 316.254044 142.714348 314.384681 140.844985 
C 312.515318 138.975622 309.979562 137.925278 307.335884 137.925278 
C 304.692205 137.925278 302.156449 138.975622 300.287086 140.844985 
C 298.417724 142.714348 297.367379 145.250104 297.367379 147.893782 
C 297.367379 150.537461 298.417724 153.073217 300.287086 154.94258 
C 302.156449 156.811942 304.692205 157.862287 307.335884 157.862287 
z
" clip-path="url(#pef726b205d)" style="fill: #dddfed; fill-opacity: 0.8; stroke: #ffffff; stroke-opacity: 0.8; stroke-width: 1.441454"/>
    <path d="M 151.58896 149.895684 
C 153.960952 149.895684 156.236112 148.953282 157.913364 147.27603 
C 159.590615 145.598779 160.533017 143.323619 160.533017 140.951627 
C 160.533017 138.579635 159.590615 136.304475 157.913364 134.627224 
C 156.236112 132.949972 153.960952 132.00757 151.58896 132.00757 
C 149.216969 132.00757 146.941808 132.949972 145.264557 134.627224 
C 143.587306 136.304475 142.644903 138.579635 142.644903 140.951627 
C 142.644903 143.323619 143.587306 145.598779 145.264557 147.27603 
C 146.941808 148.953282 149.216969 149.895684 151.58896 149.895684 
z
" clip-path="url(#pef726b205d)" style="fill: #cfd3e6; fill-opacity: 0.8; stroke: #ffffff; stroke-opacity: 0.8; stroke-width: 1.441454"/>
    <path d="M 139.180574 154.754374 
C 142.367763 154.754374 145.424843 153.48809 147.678526 151.234406 
C 149.93221 148.980723 151.198493 145.923643 151.198493 142.736454 
C 151.198493 139.549264 149.93221 136.492185 147.678526 134.238501 
C 145.424843 131.984818 142.367763 130.718534 139.180574 130.718534 
C 135.993384 130.718534 132.936304 131.984818 130.682621 134.238501 
C 128.428938 136.492185 127.162654 139.549264 127.162654 142.736454 
C 127.162654 145.923643 128.428938 148.980723 130.682621 151.234406 
C 132.936304 153.48809 135.993384 154.754374 139.180574 154.754374 
z
" clip-path="url(#pef726b205d)" style="fill: #aeb7d5; fill-opacity: 0.8; stroke: #ffffff; stroke-opacity: 0.8; stroke-width: 1.441454"/>
    <path d="M 145.445373 343.367603 
C 148.312183 343.367603 151.061962 342.228607 153.089104 340.201466 
C 155.116245 338.174325 156.255241 335.424545 156.255241 332.557735 
C 156.255241 329.690924 155.116245 326.941145 153.089104 324.914004 
C 151.061962 322.886862 148.312183 321.747867 145.445373 321.747867 
C 142.578562 321.747867 139.828783 322.886862 137.801642 324.914004 
C 135.7745 326.941145 134.635504 329.690924 134.635504 332.557735 
C 134.635504 335.424545 135.7745 338.174325 137.801642 340.201466 
C 139.828783 342.228607 142.578562 343.367603 145.445373 343.367603 
z
" clip-path="url(#pef726b205d)" style="fill: #274391; fill-opacity: 0.8; stroke: #ffffff; stroke-opacity: 0.8; stroke-width: 1.441454"/>
    <path d="M 240.782387 479.75339 
C 243.741287 479.75339 246.579396 478.577807 248.671654 476.485549 
C 250.763912 474.393291 251.939495 471.555182 251.939495 468.596282 
C 251.939495 465.637383 250.763912 462.799274 248.671654 460.707016 
C 246.579396 458.614758 243.741287 457.439175 240.782387 457.439175 
C 237.823488 457.439175 234.985379 458.614758 232.893121 460.707016 
C 230.800863 462.799274 229.625279 465.637383 229.625279 468.596282 
C 229.625279 471.555182 230.800863 474.393291 232.893121 476.485549 
C 234.985379 478.577807 237.823488 479.75339 240.782387 479.75339 
z
" clip-path="url(#pef726b205d)" style="fill: #d5d8e9; fill-opacity: 0.8; stroke: #ffffff; stroke-opacity: 0.8; stroke-width: 1.441454"/>
    <path d="M 266.672701 146.480331 
C 270.737058 146.480331 274.635496 144.865545 277.50943 141.991611 
C 280.383363 139.117677 281.998149 135.219239 281.998149 131.154883 
C 281.998149 127.090527 280.383363 123.192089 277.50943 120.318155 
C 274.635496 117.444221 270.737058 115.829435 266.672701 115.829435 
C 262.608345 115.829435 258.709907 117.444221 255.835973 120.318155 
C 252.962039 123.192089 251.347253 127.090527 251.347253 131.154883 
C 251.347253 135.219239 252.962039 139.117677 255.835973 141.991611 
C 258.709907 144.865545 262.608345 146.480331 266.672701 146.480331 
z
" clip-path="url(#pef726b205d)" style="fill: #9ca7cc; fill-opacity: 0.8; stroke: #ffffff; stroke-opacity: 0.8; stroke-width: 1.441454"/>
    <path d="M 266.456996 425.294334 
C 268.873956 425.294334 271.192249 424.334066 272.901297 422.625017 
C 274.610346 420.915968 275.570614 418.597676 275.570614 416.180716 
C 275.570614 413.763756 274.610346 411.445464 272.901297 409.736415 
C 271.192249 408.027366 268.873956 407.067098 266.456996 407.067098 
C 264.040036 407.067098 261.721744 408.027366 260.012695 409.736415 
C 258.303646 411.445464 257.343378 413.763756 257.343378 416.180716 
C 257.343378 418.597676 258.303646 420.915968 260.012695 422.625017 
C 261.721744 424.334066 264.040036 425.294334 266.456996 425.294334 
z
" clip-path="url(#pef726b205d)" style="fill: #cacfe4; fill-opacity: 0.8; stroke: #ffffff; stroke-opacity: 0.8; stroke-width: 1.441454"/>
    <path d="M 366.319793 357.246591 
C 368.996996 357.246591 371.564908 356.182927 373.457977 354.289858 
C 375.351045 352.39679 376.414709 349.828878 376.414709 347.151675 
C 376.414709 344.474472 375.351045 341.90656 373.457977 340.013491 
C 371.564908 338.120423 368.996996 337.056759 366.319793 337.056759 
C 363.64259 337.056759 361.074678 338.120423 359.18161 340.013491 
C 357.288541 341.90656 356.224877 344.474472 356.224877 347.151675 
C 356.224877 349.828878 357.288541 352.39679 359.18161 354.289858 
C 361.074678 356.182927 363.64259 357.246591 366.319793 357.246591 
z
" clip-path="url(#pef726b205d)" style="fill: #d2d5e7; fill-opacity: 0.8; stroke: #ffffff; stroke-opacity: 0.8; stroke-width: 1.441454"/>
    <path d="M 166.995235 228.762216 
C 169.291961 228.762216 171.494929 227.849717 173.118959 226.225686 
C 174.74299 224.601656 175.655489 222.398688 175.655489 220.101962 
C 175.655489 217.805236 174.74299 215.602268 173.118959 213.978238 
C 171.494929 212.354207 169.291961 211.441708 166.995235 211.441708 
C 164.698509 211.441708 162.495541 212.354207 160.871511 213.978238 
C 159.24748 215.602268 158.334981 217.805236 158.334981 220.101962 
C 158.334981 222.398688 159.24748 224.601656 160.871511 226.225686 
C 162.495541 227.849717 164.698509 228.762216 166.995235 228.762216 
z
" clip-path="url(#pef726b205d)" style="fill: #b5bdd9; fill-opacity: 0.8; stroke: #ffffff; stroke-opacity: 0.8; stroke-width: 1.441454"/>
    <path d="M 163.601148 363.887625 
C 168.32868 363.887625 172.863221 362.009357 176.206091 358.666487 
C 179.548961 355.323617 181.427229 350.789076 181.427229 346.061544 
C 181.427229 341.334012 179.548961 336.79947 176.206091 333.456601 
C 172.863221 330.113731 168.32868 328.235462 163.601148 328.235462 
C 158.873616 328.235462 154.339075 330.113731 150.996205 333.456601 
C 147.653335 336.79947 145.775066 341.334012 145.775066 346.061544 
C 145.775066 350.789076 147.653335 355.323617 150.996205 358.666487 
C 154.339075 362.009357 158.873616 363.887625 163.601148 363.887625 
z
" clip-path="url(#pef726b205d)" style="fill: #d3d7e8; fill-opacity: 0.8; stroke: #ffffff; stroke-opacity: 0.8; stroke-width: 1.441454"/>
    <path d="M 94.079462 309.407416 
C 96.989686 309.407416 99.781106 308.251172 101.838945 306.193333 
C 103.896784 304.135494 105.053028 301.344074 105.053028 298.433851 
C 105.053028 295.523627 103.896784 292.732207 101.838945 290.674368 
C 99.781106 288.616529 96.989686 287.460285 94.079462 287.460285 
C 91.169239 287.460285 88.377819 288.616529 86.31998 290.674368 
C 84.262141 292.732207 83.105897 295.523627 83.105897 298.433851 
C 83.105897 301.344074 84.262141 304.135494 86.31998 306.193333 
C 88.377819 308.251172 91.169239 309.407416 94.079462 309.407416 
z
" clip-path="url(#pef726b205d)" style="fill: #8190bf; fill-opacity: 0.8; stroke: #ffffff; stroke-opacity: 0.8; stroke-width: 1.441454"/>
    <path d="M 305.421376 370.482145 
C 310.151098 370.482145 314.68774 368.603007 318.032159 365.258588 
C 321.376577 361.914169 323.255716 357.377527 323.255716 352.647805 
C 323.255716 347.918083 321.376577 343.381441 318.032159 340.037022 
C 314.68774 336.692603 310.151098 334.813465 305.421376 334.813465 
C 300.691653 334.813465 296.155011 336.692603 292.810593 340.037022 
C 289.466174 343.381441 287.587035 347.918083 287.587035 352.647805 
C 287.587035 357.377527 289.466174 361.914169 292.810593 365.258588 
C 296.155011 368.603007 300.691653 370.482145 305.421376 370.482145 
z
" clip-path="url(#pef726b205d)" style="fill: #c1c7df; fill-opacity: 0.8; stroke: #ffffff; stroke-opacity: 0.8; stroke-width: 1.441454"/>
    <path d="M 159.670999 228.384564 
C 162.038907 228.384564 164.310149 227.443784 165.984512 225.769421 
C 167.658876 224.095058 168.599655 221.823815 168.599655 219.455908 
C 168.599655 217.088001 167.658876 214.816758 165.984512 213.142395 
C 164.310149 211.468032 162.038907 210.527252 159.670999 210.527252 
C 157.303092 210.527252 155.03185 211.468032 153.357487 213.142395 
C 151.683123 214.816758 150.742344 217.088001 150.742344 219.455908 
C 150.742344 221.823815 151.683123 224.095058 153.357487 225.769421 
C 155.03185 227.443784 157.303092 228.384564 159.670999 228.384564 
z
" clip-path="url(#pef726b205d)" style="fill: #d5d8e9; fill-opacity: 0.8; stroke: #ffffff; stroke-opacity: 0.8; stroke-width: 1.441454"/>
   </g>
   <g id="matplotlib.axis_1">
    <g id="xtick_1">
     <g id="line2d_1">
      <defs>
       <path id="m994a7fdac0" d="M 0 0 
L 0 3.5 
" style="stroke: #000000; stroke-width: 0.8"/>
      </defs>
      <g>
       <use xlink:href="#m994a7fdac0" x="114.534355" y="512.64" style="stroke: #000000; stroke-width: 0.8"/>
      </g>
     </g>
     <g id="text_1">
      <!-- −1.5 -->
      <g transform="translate(102.392948 527.238438) scale(0.1 -0.1)">
       <defs>
        <path id="DejaVuSans-2212" d="M 678 2272 
L 4684 2272 
L 4684 1741 
L 678 1741 
L 678 2272 
z
" transform="scale(0.015625)"/>
        <path id="DejaVuSans-31" d="M 794 531 
L 1825 531 
L 1825 4091 
L 703 3866 
L 703 4441 
L 1819 4666 
L 2450 4666 
L 2450 531 
L 3481 531 
L 3481 0 
L 794 0 
L 794 531 
z
" transform="scale(0.015625)"/>
        <path id="DejaVuSans-2e" d="M 684 794 
L 1344 794 
L 1344 0 
L 684 0 
L 684 794 
z
" transform="scale(0.015625)"/>
        <path id="DejaVuSans-35" d="M 691 4666 
L 3169 4666 
L 3169 4134 
L 1269 4134 
L 1269 2991 
Q 1406 3038 1543 3061 
Q 1681 3084 1819 3084 
Q 2600 3084 3056 2656 
Q 3513 2228 3513 1497 
Q 3513 744 3044 326 
Q 2575 -91 1722 -91 
Q 1428 -91 1123 -41 
Q 819 9 494 109 
L 494 744 
Q 775 591 1075 516 
Q 1375 441 1709 441 
Q 2250 441 2565 725 
Q 2881 1009 2881 1497 
Q 2881 1984 2565 2268 
Q 2250 2553 1709 2553 
Q 1456 2553 1204 2497 
Q 953 2441 691 2322 
L 691 4666 
z
" transform="scale(0.015625)"/>
       </defs>
       <use xlink:href="#DejaVuSans-2212"/>
       <use xlink:href="#DejaVuSans-31" x="83.789062"/>
       <use xlink:href="#DejaVuSans-2e" x="147.412109"/>
       <use xlink:href="#DejaVuSans-35" x="179.199219"/>
      </g>
     </g>
    </g>
    <g id="xtick_2">
     <g id="line2d_2">
      <g>
       <use xlink:href="#m994a7fdac0" x="170.399395" y="512.64" style="stroke: #000000; stroke-width: 0.8"/>
      </g>
     </g>
     <g id="text_2">
      <!-- −1.0 -->
      <g transform="translate(158.257989 527.238438) scale(0.1 -0.1)">
       <defs>
        <path id="DejaVuSans-30" d="M 2034 4250 
Q 1547 4250 1301 3770 
Q 1056 3291 1056 2328 
Q 1056 1369 1301 889 
Q 1547 409 2034 409 
Q 2525 409 2770 889 
Q 3016 1369 3016 2328 
Q 3016 3291 2770 3770 
Q 2525 4250 2034 4250 
z
M 2034 4750 
Q 2819 4750 3233 4129 
Q 3647 3509 3647 2328 
Q 3647 1150 3233 529 
Q 2819 -91 2034 -91 
Q 1250 -91 836 529 
Q 422 1150 422 2328 
Q 422 3509 836 4129 
Q 1250 4750 2034 4750 
z
" transform="scale(0.015625)"/>
       </defs>
       <use xlink:href="#DejaVuSans-2212"/>
       <use xlink:href="#DejaVuSans-31" x="83.789062"/>
       <use xlink:href="#DejaVuSans-2e" x="147.412109"/>
       <use xlink:href="#DejaVuSans-30" x="179.199219"/>
      </g>
     </g>
    </g>
    <g id="xtick_3">
     <g id="line2d_3">
      <g>
       <use xlink:href="#m994a7fdac0" x="226.264436" y="512.64" style="stroke: #000000; stroke-width: 0.8"/>
      </g>
     </g>
     <g id="text_3">
      <!-- −0.5 -->
      <g transform="translate(214.123029 527.238438) scale(0.1 -0.1)">
       <use xlink:href="#DejaVuSans-2212"/>
       <use xlink:href="#DejaVuSans-30" x="83.789062"/>
       <use xlink:href="#DejaVuSans-2e" x="147.412109"/>
       <use xlink:href="#DejaVuSans-35" x="179.199219"/>
      </g>
     </g>
    </g>
    <g id="xtick_4">
     <g id="line2d_4">
      <g>
       <use xlink:href="#m994a7fdac0" x="282.129476" y="512.64" style="stroke: #000000; stroke-width: 0.8"/>
      </g>
     </g>
     <g id="text_4">
      <!-- 0.0 -->
      <g transform="translate(274.177914 527.238438) scale(0.1 -0.1)">
       <use xlink:href="#DejaVuSans-30"/>
       <use xlink:href="#DejaVuSans-2e" x="63.623047"/>
       <use xlink:href="#DejaVuSans-30" x="95.410156"/>
      </g>
     </g>
    </g>
    <g id="xtick_5">
     <g id="line2d_5">
      <g>
       <use xlink:href="#m994a7fdac0" x="337.994517" y="512.64" style="stroke: #000000; stroke-width: 0.8"/>
      </g>
     </g>
     <g id="text_5">
      <!-- 0.5 -->
      <g transform="translate(330.042954 527.238438) scale(0.1 -0.1)">
       <use xlink:href="#DejaVuSans-30"/>
       <use xlink:href="#DejaVuSans-2e" x="63.623047"/>
       <use xlink:href="#DejaVuSans-35" x="95.410156"/>
      </g>
     </g>
    </g>
    <g id="xtick_6">
     <g id="line2d_6">
      <g>
       <use xlink:href="#m994a7fdac0" x="393.859557" y="512.64" style="stroke: #000000; stroke-width: 0.8"/>
      </g>
     </g>
     <g id="text_6">
      <!-- 1.0 -->
      <g transform="translate(385.907995 527.238438) scale(0.1 -0.1)">
       <use xlink:href="#DejaVuSans-31"/>
       <use xlink:href="#DejaVuSans-2e" x="63.623047"/>
       <use xlink:href="#DejaVuSans-30" x="95.410156"/>
      </g>
     </g>
    </g>
    <g id="xtick_7">
     <g id="line2d_7">
      <g>
       <use xlink:href="#m994a7fdac0" x="449.724598" y="512.64" style="stroke: #000000; stroke-width: 0.8"/>
      </g>
     </g>
     <g id="text_7">
      <!-- 1.5 -->
      <g transform="translate(441.773035 527.238438) scale(0.1 -0.1)">
       <use xlink:href="#DejaVuSans-31"/>
       <use xlink:href="#DejaVuSans-2e" x="63.623047"/>
       <use xlink:href="#DejaVuSans-35" x="95.410156"/>
      </g>
     </g>
    </g>
    <g id="xtick_8">
     <g id="line2d_8">
      <g>
       <use xlink:href="#m994a7fdac0" x="505.589638" y="512.64" style="stroke: #000000; stroke-width: 0.8"/>
      </g>
     </g>
     <g id="text_8">
      <!-- 2.0 -->
      <g transform="translate(497.638076 527.238438) scale(0.1 -0.1)">
       <defs>
        <path id="DejaVuSans-32" d="M 1228 531 
L 3431 531 
L 3431 0 
L 469 0 
L 469 531 
Q 828 903 1448 1529 
Q 2069 2156 2228 2338 
Q 2531 2678 2651 2914 
Q 2772 3150 2772 3378 
Q 2772 3750 2511 3984 
Q 2250 4219 1831 4219 
Q 1534 4219 1204 4116 
Q 875 4013 500 3803 
L 500 4441 
Q 881 4594 1212 4672 
Q 1544 4750 1819 4750 
Q 2544 4750 2975 4387 
Q 3406 4025 3406 3419 
Q 3406 3131 3298 2873 
Q 3191 2616 2906 2266 
Q 2828 2175 2409 1742 
Q 1991 1309 1228 531 
z
" transform="scale(0.015625)"/>
       </defs>
       <use xlink:href="#DejaVuSans-32"/>
       <use xlink:href="#DejaVuSans-2e" x="63.623047"/>
       <use xlink:href="#DejaVuSans-30" x="95.410156"/>
      </g>
     </g>
    </g>
    <g id="text_9">
     <!-- GHG intensity (kg CO2eq/kg) -->
     <g transform="translate(222.663281 540.916563) scale(0.1 -0.1)">
      <defs>
       <path id="DejaVuSans-47" d="M 3809 666 
L 3809 1919 
L 2778 1919 
L 2778 2438 
L 4434 2438 
L 4434 434 
Q 4069 175 3628 42 
Q 3188 -91 2688 -91 
Q 1594 -91 976 548 
Q 359 1188 359 2328 
Q 359 3472 976 4111 
Q 1594 4750 2688 4750 
Q 3144 4750 3555 4637 
Q 3966 4525 4313 4306 
L 4313 3634 
Q 3963 3931 3569 4081 
Q 3175 4231 2741 4231 
Q 1884 4231 1454 3753 
Q 1025 3275 1025 2328 
Q 1025 1384 1454 906 
Q 1884 428 2741 428 
Q 3075 428 3337 486 
Q 3600 544 3809 666 
z
" transform="scale(0.015625)"/>
       <path id="DejaVuSans-48" d="M 628 4666 
L 1259 4666 
L 1259 2753 
L 3553 2753 
L 3553 4666 
L 4184 4666 
L 4184 0 
L 3553 0 
L 3553 2222 
L 1259 2222 
L 1259 0 
L 628 0 
L 628 4666 
z
" transform="scale(0.015625)"/>
       <path id="DejaVuSans-20" transform="scale(0.015625)"/>
       <path id="DejaVuSans-69" d="M 603 3500 
L 1178 3500 
L 1178 0 
L 603 0 
L 603 3500 
z
M 603 4863 
L 1178 4863 
L 1178 4134 
L 603 4134 
L 603 4863 
z
" transform="scale(0.015625)"/>
       <path id="DejaVuSans-6e" d="M 3513 2113 
L 3513 0 
L 2938 0 
L 2938 2094 
Q 2938 2591 2744 2837 
Q 2550 3084 2163 3084 
Q 1697 3084 1428 2787 
Q 1159 2491 1159 1978 
L 1159 0 
L 581 0 
L 581 3500 
L 1159 3500 
L 1159 2956 
Q 1366 3272 1645 3428 
Q 1925 3584 2291 3584 
Q 2894 3584 3203 3211 
Q 3513 2838 3513 2113 
z
" transform="scale(0.015625)"/>
       <path id="DejaVuSans-74" d="M 1172 4494 
L 1172 3500 
L 2356 3500 
L 2356 3053 
L 1172 3053 
L 1172 1153 
Q 1172 725 1289 603 
Q 1406 481 1766 481 
L 2356 481 
L 2356 0 
L 1766 0 
Q 1100 0 847 248 
Q 594 497 594 1153 
L 594 3053 
L 172 3053 
L 172 3500 
L 594 3500 
L 594 4494 
L 1172 4494 
z
" transform="scale(0.015625)"/>
       <path id="DejaVuSans-65" d="M 3597 1894 
L 3597 1613 
L 953 1613 
Q 991 1019 1311 708 
Q 1631 397 2203 397 
Q 2534 397 2845 478 
Q 3156 559 3463 722 
L 3463 178 
Q 3153 47 2828 -22 
Q 2503 -91 2169 -91 
Q 1331 -91 842 396 
Q 353 884 353 1716 
Q 353 2575 817 3079 
Q 1281 3584 2069 3584 
Q 2775 3584 3186 3129 
Q 3597 2675 3597 1894 
z
M 3022 2063 
Q 3016 2534 2758 2815 
Q 2500 3097 2075 3097 
Q 1594 3097 1305 2825 
Q 1016 2553 972 2059 
L 3022 2063 
z
" transform="scale(0.015625)"/>
       <path id="DejaVuSans-73" d="M 2834 3397 
L 2834 2853 
Q 2591 2978 2328 3040 
Q 2066 3103 1784 3103 
Q 1356 3103 1142 2972 
Q 928 2841 928 2578 
Q 928 2378 1081 2264 
Q 1234 2150 1697 2047 
L 1894 2003 
Q 2506 1872 2764 1633 
Q 3022 1394 3022 966 
Q 3022 478 2636 193 
Q 2250 -91 1575 -91 
Q 1294 -91 989 -36 
Q 684 19 347 128 
L 347 722 
Q 666 556 975 473 
Q 1284 391 1588 391 
Q 1994 391 2212 530 
Q 2431 669 2431 922 
Q 2431 1156 2273 1281 
Q 2116 1406 1581 1522 
L 1381 1569 
Q 847 1681 609 1914 
Q 372 2147 372 2553 
Q 372 3047 722 3315 
Q 1072 3584 1716 3584 
Q 2034 3584 2315 3537 
Q 2597 3491 2834 3397 
z
" transform="scale(0.015625)"/>
       <path id="DejaVuSans-79" d="M 2059 -325 
Q 1816 -950 1584 -1140 
Q 1353 -1331 966 -1331 
L 506 -1331 
L 506 -850 
L 844 -850 
Q 1081 -850 1212 -737 
Q 1344 -625 1503 -206 
L 1606 56 
L 191 3500 
L 800 3500 
L 1894 763 
L 2988 3500 
L 3597 3500 
L 2059 -325 
z
" transform="scale(0.015625)"/>
       <path id="DejaVuSans-28" d="M 1984 4856 
Q 1566 4138 1362 3434 
Q 1159 2731 1159 2009 
Q 1159 1288 1364 580 
Q 1569 -128 1984 -844 
L 1484 -844 
Q 1016 -109 783 600 
Q 550 1309 550 2009 
Q 550 2706 781 3412 
Q 1013 4119 1484 4856 
L 1984 4856 
z
" transform="scale(0.015625)"/>
       <path id="DejaVuSans-6b" d="M 581 4863 
L 1159 4863 
L 1159 1991 
L 2875 3500 
L 3609 3500 
L 1753 1863 
L 3688 0 
L 2938 0 
L 1159 1709 
L 1159 0 
L 581 0 
L 581 4863 
z
" transform="scale(0.015625)"/>
       <path id="DejaVuSans-67" d="M 2906 1791 
Q 2906 2416 2648 2759 
Q 2391 3103 1925 3103 
Q 1463 3103 1205 2759 
Q 947 2416 947 1791 
Q 947 1169 1205 825 
Q 1463 481 1925 481 
Q 2391 481 2648 825 
Q 2906 1169 2906 1791 
z
M 3481 434 
Q 3481 -459 3084 -895 
Q 2688 -1331 1869 -1331 
Q 1566 -1331 1297 -1286 
Q 1028 -1241 775 -1147 
L 775 -588 
Q 1028 -725 1275 -790 
Q 1522 -856 1778 -856 
Q 2344 -856 2625 -561 
Q 2906 -266 2906 331 
L 2906 616 
Q 2728 306 2450 153 
Q 2172 0 1784 0 
Q 1141 0 747 490 
Q 353 981 353 1791 
Q 353 2603 747 3093 
Q 1141 3584 1784 3584 
Q 2172 3584 2450 3431 
Q 2728 3278 2906 2969 
L 2906 3500 
L 3481 3500 
L 3481 434 
z
" transform="scale(0.015625)"/>
       <path id="DejaVuSans-43" d="M 4122 4306 
L 4122 3641 
Q 3803 3938 3442 4084 
Q 3081 4231 2675 4231 
Q 1875 4231 1450 3742 
Q 1025 3253 1025 2328 
Q 1025 1406 1450 917 
Q 1875 428 2675 428 
Q 3081 428 3442 575 
Q 3803 722 4122 1019 
L 4122 359 
Q 3791 134 3420 21 
Q 3050 -91 2638 -91 
Q 1578 -91 968 557 
Q 359 1206 359 2328 
Q 359 3453 968 4101 
Q 1578 4750 2638 4750 
Q 3056 4750 3426 4639 
Q 3797 4528 4122 4306 
z
" transform="scale(0.015625)"/>
       <path id="DejaVuSans-4f" d="M 2522 4238 
Q 1834 4238 1429 3725 
Q 1025 3213 1025 2328 
Q 1025 1447 1429 934 
Q 1834 422 2522 422 
Q 3209 422 3611 934 
Q 4013 1447 4013 2328 
Q 4013 3213 3611 3725 
Q 3209 4238 2522 4238 
z
M 2522 4750 
Q 3503 4750 4090 4092 
Q 4678 3434 4678 2328 
Q 4678 1225 4090 567 
Q 3503 -91 2522 -91 
Q 1538 -91 948 565 
Q 359 1222 359 2328 
Q 359 3434 948 4092 
Q 1538 4750 2522 4750 
z
" transform="scale(0.015625)"/>
       <path id="DejaVuSans-71" d="M 947 1747 
Q 947 1113 1208 752 
Q 1469 391 1925 391 
Q 2381 391 2643 752 
Q 2906 1113 2906 1747 
Q 2906 2381 2643 2742 
Q 2381 3103 1925 3103 
Q 1469 3103 1208 2742 
Q 947 2381 947 1747 
z
M 2906 525 
Q 2725 213 2448 61 
Q 2172 -91 1784 -91 
Q 1150 -91 751 415 
Q 353 922 353 1747 
Q 353 2572 751 3078 
Q 1150 3584 1784 3584 
Q 2172 3584 2448 3432 
Q 2725 3281 2906 2969 
L 2906 3500 
L 3481 3500 
L 3481 -1331 
L 2906 -1331 
L 2906 525 
z
" transform="scale(0.015625)"/>
       <path id="DejaVuSans-2f" d="M 1625 4666 
L 2156 4666 
L 531 -594 
L 0 -594 
L 1625 4666 
z
" transform="scale(0.015625)"/>
       <path id="DejaVuSans-29" d="M 513 4856 
L 1013 4856 
Q 1481 4119 1714 3412 
Q 1947 2706 1947 2009 
Q 1947 1309 1714 600 
Q 1481 -109 1013 -844 
L 513 -844 
Q 928 -128 1133 580 
Q 1338 1288 1338 2009 
Q 1338 2731 1133 3434 
Q 928 4138 513 4856 
z
" transform="scale(0.015625)"/>
      </defs>
      <use xlink:href="#DejaVuSans-47"/>
      <use xlink:href="#DejaVuSans-48" x="77.490234"/>
      <use xlink:href="#DejaVuSans-47" x="152.685547"/>
      <use xlink:href="#DejaVuSans-20" x="230.175781"/>
      <use xlink:href="#DejaVuSans-69" x="261.962891"/>
      <use xlink:href="#DejaVuSans-6e" x="289.746094"/>
      <use xlink:href="#DejaVuSans-74" x="353.125"/>
      <use xlink:href="#DejaVuSans-65" x="392.333984"/>
      <use xlink:href="#DejaVuSans-6e" x="453.857422"/>
      <use xlink:href="#DejaVuSans-73" x="517.236328"/>
      <use xlink:href="#DejaVuSans-69" x="569.335938"/>
      <use xlink:href="#DejaVuSans-74" x="597.119141"/>
      <use xlink:href="#DejaVuSans-79" x="636.328125"/>
      <use xlink:href="#DejaVuSans-20" x="695.507812"/>
      <use xlink:href="#DejaVuSans-28" x="727.294922"/>
      <use xlink:href="#DejaVuSans-6b" x="766.308594"/>
      <use xlink:href="#DejaVuSans-67" x="824.21875"/>
      <use xlink:href="#DejaVuSans-20" x="887.695312"/>
      <use xlink:href="#DejaVuSans-43" x="919.482422"/>
      <use xlink:href="#DejaVuSans-4f" x="989.306641"/>
      <use xlink:href="#DejaVuSans-32" x="1068.017578"/>
      <use xlink:href="#DejaVuSans-65" x="1131.640625"/>
      <use xlink:href="#DejaVuSans-71" x="1193.164062"/>
      <use xlink:href="#DejaVuSans-2f" x="1256.640625"/>
      <use xlink:href="#DejaVuSans-6b" x="1290.332031"/>
      <use xlink:href="#DejaVuSans-67" x="1348.242188"/>
      <use xlink:href="#DejaVuSans-29" x="1411.71875"/>
     </g>
    </g>
   </g>
   <g id="matplotlib.axis_2">
    <g id="ytick_1">
     <g id="line2d_9">
      <defs>
       <path id="m8b0f13b862" d="M 0 0 
L -3.5 0 
" style="stroke: #000000; stroke-width: 0.8"/>
      </defs>
      <g>
       <use xlink:href="#m8b0f13b862" x="72" y="503.310731" style="stroke: #000000; stroke-width: 0.8"/>
      </g>
     </g>
     <g id="text_10">
      <!-- 0 -->
      <g transform="translate(58.6375 507.10995) scale(0.1 -0.1)">
       <use xlink:href="#DejaVuSans-30"/>
      </g>
     </g>
    </g>
    <g id="ytick_2">
     <g id="line2d_10">
      <g>
       <use xlink:href="#m8b0f13b862" x="72" y="437.360732" style="stroke: #000000; stroke-width: 0.8"/>
      </g>
     </g>
     <g id="text_11">
      <!-- 2 -->
      <g transform="translate(58.6375 441.159951) scale(0.1 -0.1)">
       <use xlink:href="#DejaVuSans-32"/>
      </g>
     </g>
    </g>
    <g id="ytick_3">
     <g id="line2d_11">
      <g>
       <use xlink:href="#m8b0f13b862" x="72" y="371.410733" style="stroke: #000000; stroke-width: 0.8"/>
      </g>
     </g>
     <g id="text_12">
      <!-- 4 -->
      <g transform="translate(58.6375 375.209952) scale(0.1 -0.1)">
       <defs>
        <path id="DejaVuSans-34" d="M 2419 4116 
L 825 1625 
L 2419 1625 
L 2419 4116 
z
M 2253 4666 
L 3047 4666 
L 3047 1625 
L 3713 1625 
L 3713 1100 
L 3047 1100 
L 3047 0 
L 2419 0 
L 2419 1100 
L 313 1100 
L 313 1709 
L 2253 4666 
z
" transform="scale(0.015625)"/>
       </defs>
       <use xlink:href="#DejaVuSans-34"/>
      </g>
     </g>
    </g>
    <g id="ytick_4">
     <g id="line2d_12">
      <g>
       <use xlink:href="#m8b0f13b862" x="72" y="305.460735" style="stroke: #000000; stroke-width: 0.8"/>
      </g>
     </g>
     <g id="text_13">
      <!-- 6 -->
      <g transform="translate(58.6375 309.259954) scale(0.1 -0.1)">
       <defs>
        <path id="DejaVuSans-36" d="M 2113 2584 
Q 1688 2584 1439 2293 
Q 1191 2003 1191 1497 
Q 1191 994 1439 701 
Q 1688 409 2113 409 
Q 2538 409 2786 701 
Q 3034 994 3034 1497 
Q 3034 2003 2786 2293 
Q 2538 2584 2113 2584 
z
M 3366 4563 
L 3366 3988 
Q 3128 4100 2886 4159 
Q 2644 4219 2406 4219 
Q 1781 4219 1451 3797 
Q 1122 3375 1075 2522 
Q 1259 2794 1537 2939 
Q 1816 3084 2150 3084 
Q 2853 3084 3261 2657 
Q 3669 2231 3669 1497 
Q 3669 778 3244 343 
Q 2819 -91 2113 -91 
Q 1303 -91 875 529 
Q 447 1150 447 2328 
Q 447 3434 972 4092 
Q 1497 4750 2381 4750 
Q 2619 4750 2861 4703 
Q 3103 4656 3366 4563 
z
" transform="scale(0.015625)"/>
       </defs>
       <use xlink:href="#DejaVuSans-36"/>
      </g>
     </g>
    </g>
    <g id="ytick_5">
     <g id="line2d_13">
      <g>
       <use xlink:href="#m8b0f13b862" x="72" y="239.510736" style="stroke: #000000; stroke-width: 0.8"/>
      </g>
     </g>
     <g id="text_14">
      <!-- 8 -->
      <g transform="translate(58.6375 243.309955) scale(0.1 -0.1)">
       <defs>
        <path id="DejaVuSans-38" d="M 2034 2216 
Q 1584 2216 1326 1975 
Q 1069 1734 1069 1313 
Q 1069 891 1326 650 
Q 1584 409 2034 409 
Q 2484 409 2743 651 
Q 3003 894 3003 1313 
Q 3003 1734 2745 1975 
Q 2488 2216 2034 2216 
z
M 1403 2484 
Q 997 2584 770 2862 
Q 544 3141 544 3541 
Q 544 4100 942 4425 
Q 1341 4750 2034 4750 
Q 2731 4750 3128 4425 
Q 3525 4100 3525 3541 
Q 3525 3141 3298 2862 
Q 3072 2584 2669 2484 
Q 3125 2378 3379 2068 
Q 3634 1759 3634 1313 
Q 3634 634 3220 271 
Q 2806 -91 2034 -91 
Q 1263 -91 848 271 
Q 434 634 434 1313 
Q 434 1759 690 2068 
Q 947 2378 1403 2484 
z
M 1172 3481 
Q 1172 3119 1398 2916 
Q 1625 2713 2034 2713 
Q 2441 2713 2670 2916 
Q 2900 3119 2900 3481 
Q 2900 3844 2670 4047 
Q 2441 4250 2034 4250 
Q 1625 4250 1398 4047 
Q 1172 3844 1172 3481 
z
" transform="scale(0.015625)"/>
       </defs>
       <use xlink:href="#DejaVuSans-38"/>
      </g>
     </g>
    </g>
    <g id="ytick_6">
     <g id="line2d_14">
      <g>
       <use xlink:href="#m8b0f13b862" x="72" y="173.560737" style="stroke: #000000; stroke-width: 0.8"/>
      </g>
     </g>
     <g id="text_15">
      <!-- 10 -->
      <g transform="translate(52.275 177.359956) scale(0.1 -0.1)">
       <use xlink:href="#DejaVuSans-31"/>
       <use xlink:href="#DejaVuSans-30" x="63.623047"/>
      </g>
     </g>
    </g>
    <g id="ytick_7">
     <g id="line2d_15">
      <g>
       <use xlink:href="#m8b0f13b862" x="72" y="107.610739" style="stroke: #000000; stroke-width: 0.8"/>
      </g>
     </g>
     <g id="text_16">
      <!-- 12 -->
      <g transform="translate(52.275 111.409957) scale(0.1 -0.1)">
       <use xlink:href="#DejaVuSans-31"/>
       <use xlink:href="#DejaVuSans-32" x="63.623047"/>
      </g>
     </g>
    </g>
    <g id="text_17">
     <!-- Biodiversity loss intensity (x10^-15 PDF/kg) -->
     <g transform="translate(46.195312 401.091719) rotate(-90) scale(0.1 -0.1)">
      <defs>
       <path id="DejaVuSans-42" d="M 1259 2228 
L 1259 519 
L 2272 519 
Q 2781 519 3026 730 
Q 3272 941 3272 1375 
Q 3272 1813 3026 2020 
Q 2781 2228 2272 2228 
L 1259 2228 
z
M 1259 4147 
L 1259 2741 
L 2194 2741 
Q 2656 2741 2882 2914 
Q 3109 3088 3109 3444 
Q 3109 3797 2882 3972 
Q 2656 4147 2194 4147 
L 1259 4147 
z
M 628 4666 
L 2241 4666 
Q 2963 4666 3353 4366 
Q 3744 4066 3744 3513 
Q 3744 3084 3544 2831 
Q 3344 2578 2956 2516 
Q 3422 2416 3680 2098 
Q 3938 1781 3938 1306 
Q 3938 681 3513 340 
Q 3088 0 2303 0 
L 628 0 
L 628 4666 
z
" transform="scale(0.015625)"/>
       <path id="DejaVuSans-6f" d="M 1959 3097 
Q 1497 3097 1228 2736 
Q 959 2375 959 1747 
Q 959 1119 1226 758 
Q 1494 397 1959 397 
Q 2419 397 2687 759 
Q 2956 1122 2956 1747 
Q 2956 2369 2687 2733 
Q 2419 3097 1959 3097 
z
M 1959 3584 
Q 2709 3584 3137 3096 
Q 3566 2609 3566 1747 
Q 3566 888 3137 398 
Q 2709 -91 1959 -91 
Q 1206 -91 779 398 
Q 353 888 353 1747 
Q 353 2609 779 3096 
Q 1206 3584 1959 3584 
z
" transform="scale(0.015625)"/>
       <path id="DejaVuSans-64" d="M 2906 2969 
L 2906 4863 
L 3481 4863 
L 3481 0 
L 2906 0 
L 2906 525 
Q 2725 213 2448 61 
Q 2172 -91 1784 -91 
Q 1150 -91 751 415 
Q 353 922 353 1747 
Q 353 2572 751 3078 
Q 1150 3584 1784 3584 
Q 2172 3584 2448 3432 
Q 2725 3281 2906 2969 
z
M 947 1747 
Q 947 1113 1208 752 
Q 1469 391 1925 391 
Q 2381 391 2643 752 
Q 2906 1113 2906 1747 
Q 2906 2381 2643 2742 
Q 2381 3103 1925 3103 
Q 1469 3103 1208 2742 
Q 947 2381 947 1747 
z
" transform="scale(0.015625)"/>
       <path id="DejaVuSans-76" d="M 191 3500 
L 800 3500 
L 1894 563 
L 2988 3500 
L 3597 3500 
L 2284 0 
L 1503 0 
L 191 3500 
z
" transform="scale(0.015625)"/>
       <path id="DejaVuSans-72" d="M 2631 2963 
Q 2534 3019 2420 3045 
Q 2306 3072 2169 3072 
Q 1681 3072 1420 2755 
Q 1159 2438 1159 1844 
L 1159 0 
L 581 0 
L 581 3500 
L 1159 3500 
L 1159 2956 
Q 1341 3275 1631 3429 
Q 1922 3584 2338 3584 
Q 2397 3584 2469 3576 
Q 2541 3569 2628 3553 
L 2631 2963 
z
" transform="scale(0.015625)"/>
       <path id="DejaVuSans-6c" d="M 603 4863 
L 1178 4863 
L 1178 0 
L 603 0 
L 603 4863 
z
" transform="scale(0.015625)"/>
       <path id="DejaVuSans-78" d="M 3513 3500 
L 2247 1797 
L 3578 0 
L 2900 0 
L 1881 1375 
L 863 0 
L 184 0 
L 1544 1831 
L 300 3500 
L 978 3500 
L 1906 2253 
L 2834 3500 
L 3513 3500 
z
" transform="scale(0.015625)"/>
       <path id="DejaVuSans-5e" d="M 2988 4666 
L 4684 2925 
L 4056 2925 
L 2681 4159 
L 1306 2925 
L 678 2925 
L 2375 4666 
L 2988 4666 
z
" transform="scale(0.015625)"/>
       <path id="DejaVuSans-2d" d="M 313 2009 
L 1997 2009 
L 1997 1497 
L 313 1497 
L 313 2009 
z
" transform="scale(0.015625)"/>
       <path id="DejaVuSans-50" d="M 1259 4147 
L 1259 2394 
L 2053 2394 
Q 2494 2394 2734 2622 
Q 2975 2850 2975 3272 
Q 2975 3691 2734 3919 
Q 2494 4147 2053 4147 
L 1259 4147 
z
M 628 4666 
L 2053 4666 
Q 2838 4666 3239 4311 
Q 3641 3956 3641 3272 
Q 3641 2581 3239 2228 
Q 2838 1875 2053 1875 
L 1259 1875 
L 1259 0 
L 628 0 
L 628 4666 
z
" transform="scale(0.015625)"/>
       <path id="DejaVuSans-44" d="M 1259 4147 
L 1259 519 
L 2022 519 
Q 2988 519 3436 956 
Q 3884 1394 3884 2338 
Q 3884 3275 3436 3711 
Q 2988 4147 2022 4147 
L 1259 4147 
z
M 628 4666 
L 1925 4666 
Q 3281 4666 3915 4102 
Q 4550 3538 4550 2338 
Q 4550 1131 3912 565 
Q 3275 0 1925 0 
L 628 0 
L 628 4666 
z
" transform="scale(0.015625)"/>
       <path id="DejaVuSans-46" d="M 628 4666 
L 3309 4666 
L 3309 4134 
L 1259 4134 
L 1259 2759 
L 3109 2759 
L 3109 2228 
L 1259 2228 
L 1259 0 
L 628 0 
L 628 4666 
z
" transform="scale(0.015625)"/>
      </defs>
      <use xlink:href="#DejaVuSans-42"/>
      <use xlink:href="#DejaVuSans-69" x="68.603516"/>
      <use xlink:href="#DejaVuSans-6f" x="96.386719"/>
      <use xlink:href="#DejaVuSans-64" x="157.568359"/>
      <use xlink:href="#DejaVuSans-69" x="221.044922"/>
      <use xlink:href="#DejaVuSans-76" x="248.828125"/>
      <use xlink:href="#DejaVuSans-65" x="308.007812"/>
      <use xlink:href="#DejaVuSans-72" x="369.53125"/>
      <use xlink:href="#DejaVuSans-73" x="410.644531"/>
      <use xlink:href="#DejaVuSans-69" x="462.744141"/>
      <use xlink:href="#DejaVuSans-74" x="490.527344"/>
      <use xlink:href="#DejaVuSans-79" x="529.736328"/>
      <use xlink:href="#DejaVuSans-20" x="588.916016"/>
      <use xlink:href="#DejaVuSans-6c" x="620.703125"/>
      <use xlink:href="#DejaVuSans-6f" x="648.486328"/>
      <use xlink:href="#DejaVuSans-73" x="709.667969"/>
      <use xlink:href="#DejaVuSans-73" x="761.767578"/>
      <use xlink:href="#DejaVuSans-20" x="813.867188"/>
      <use xlink:href="#DejaVuSans-69" x="845.654297"/>
      <use xlink:href="#DejaVuSans-6e" x="873.4375"/>
      <use xlink:href="#DejaVuSans-74" x="936.816406"/>
      <use xlink:href="#DejaVuSans-65" x="976.025391"/>
      <use xlink:href="#DejaVuSans-6e" x="1037.548828"/>
      <use xlink:href="#DejaVuSans-73" x="1100.927734"/>
      <use xlink:href="#DejaVuSans-69" x="1153.027344"/>
      <use xlink:href="#DejaVuSans-74" x="1180.810547"/>
      <use xlink:href="#DejaVuSans-79" x="1220.019531"/>
      <use xlink:href="#DejaVuSans-20" x="1279.199219"/>
      <use xlink:href="#DejaVuSans-28" x="1310.986328"/>
      <use xlink:href="#DejaVuSans-78" x="1350"/>
      <use xlink:href="#DejaVuSans-31" x="1409.179688"/>
      <use xlink:href="#DejaVuSans-30" x="1472.802734"/>
      <use xlink:href="#DejaVuSans-5e" x="1536.425781"/>
      <use xlink:href="#DejaVuSans-2d" x="1620.214844"/>
      <use xlink:href="#DejaVuSans-31" x="1656.298828"/>
      <use xlink:href="#DejaVuSans-35" x="1719.921875"/>
      <use xlink:href="#DejaVuSans-20" x="1783.544922"/>
      <use xlink:href="#DejaVuSans-50" x="1815.332031"/>
      <use xlink:href="#DejaVuSans-44" x="1875.634766"/>
      <use xlink:href="#DejaVuSans-46" x="1952.636719"/>
      <use xlink:href="#DejaVuSans-2f" x="2010.15625"/>
      <use xlink:href="#DejaVuSans-6b" x="2043.847656"/>
      <use xlink:href="#DejaVuSans-67" x="2101.757812"/>
      <use xlink:href="#DejaVuSans-29" x="2165.234375"/>
     </g>
    </g>
   </g>
   <g id="line2d_16"/>
   <g id="line2d_17"/>
   <g id="line2d_18"/>
   <g id="line2d_19"/>
   <g id="line2d_20"/>
   <g id="line2d_21"/>
   <g id="line2d_22"/>
   <g id="line2d_23"/>
   <g id="line2d_24"/>
   <g id="line2d_25"/>
   <g id="line2d_26"/>
   <g id="line2d_27"/>
   <g id="patch_3">
    <path d="M 72 512.64 
L 72 69.12 
" style="fill: none; stroke: #000000; stroke-width: 0.8; stroke-linejoin: miter; stroke-linecap: square"/>
   </g>
   <g id="patch_4">
    <path d="M 518.4 512.64 
L 518.4 69.12 
" style="fill: none; stroke: #000000; stroke-width: 0.8; stroke-linejoin: miter; stroke-linecap: square"/>
   </g>
   <g id="patch_5">
    <path d="M 72 512.64 
L 518.4 512.64 
" style="fill: none; stroke: #000000; stroke-width: 0.8; stroke-linejoin: miter; stroke-linecap: square"/>
   </g>
   <g id="patch_6">
    <path d="M 72 69.12 
L 518.4 69.12 
" style="fill: none; stroke: #000000; stroke-width: 0.8; stroke-linejoin: miter; stroke-linecap: square"/>
   </g>
   <g id="text_18">
    <!-- BRA -->
    <g transform="translate(83.856784 91.578559) scale(0.0833 -0.0833)">
     <defs>
      <path id="DejaVuSans-52" d="M 2841 2188 
Q 3044 2119 3236 1894 
Q 3428 1669 3622 1275 
L 4263 0 
L 3584 0 
L 2988 1197 
Q 2756 1666 2539 1819 
Q 2322 1972 1947 1972 
L 1259 1972 
L 1259 0 
L 628 0 
L 628 4666 
L 2053 4666 
Q 2853 4666 3247 4331 
Q 3641 3997 3641 3322 
Q 3641 2881 3436 2590 
Q 3231 2300 2841 2188 
z
M 1259 4147 
L 1259 2491 
L 2053 2491 
Q 2509 2491 2742 2702 
Q 2975 2913 2975 3322 
Q 2975 3731 2742 3939 
Q 2509 4147 2053 4147 
L 1259 4147 
z
" transform="scale(0.015625)"/>
      <path id="DejaVuSans-41" d="M 2188 4044 
L 1331 1722 
L 3047 1722 
L 2188 4044 
z
M 1831 4666 
L 2547 4666 
L 4325 0 
L 3669 0 
L 3244 1197 
L 1141 1197 
L 716 0 
L 50 0 
L 1831 4666 
z
" transform="scale(0.015625)"/>
     </defs>
     <use xlink:href="#DejaVuSans-42"/>
     <use xlink:href="#DejaVuSans-52" x="68.603516"/>
     <use xlink:href="#DejaVuSans-41" x="134.085938"/>
    </g>
   </g>
   <g id="text_19">
    <!-- CAN -->
    <g transform="translate(192.857392 411.657744) scale(0.0833 -0.0833)">
     <defs>
      <path id="DejaVuSans-4e" d="M 628 4666 
L 1478 4666 
L 3547 763 
L 3547 4666 
L 4159 4666 
L 4159 0 
L 3309 0 
L 1241 3903 
L 1241 0 
L 628 0 
L 628 4666 
z
" transform="scale(0.015625)"/>
     </defs>
     <use xlink:href="#DejaVuSans-43"/>
     <use xlink:href="#DejaVuSans-41" x="69.824219"/>
     <use xlink:href="#DejaVuSans-4e" x="138.232422"/>
    </g>
   </g>
   <g id="text_20">
    <!-- CEU -->
    <g transform="translate(172.540877 302.198239) scale(0.0833 -0.0833)">
     <defs>
      <path id="DejaVuSans-45" d="M 628 4666 
L 3578 4666 
L 3578 4134 
L 1259 4134 
L 1259 2753 
L 3481 2753 
L 3481 2222 
L 1259 2222 
L 1259 531 
L 3634 531 
L 3634 0 
L 628 0 
L 628 4666 
z
" transform="scale(0.015625)"/>
      <path id="DejaVuSans-55" d="M 556 4666 
L 1191 4666 
L 1191 1831 
Q 1191 1081 1462 751 
Q 1734 422 2344 422 
Q 2950 422 3222 751 
Q 3494 1081 3494 1831 
L 3494 4666 
L 4128 4666 
L 4128 1753 
Q 4128 841 3676 375 
Q 3225 -91 2344 -91 
Q 1459 -91 1007 375 
Q 556 841 556 1753 
L 556 4666 
z
" transform="scale(0.015625)"/>
     </defs>
     <use xlink:href="#DejaVuSans-43"/>
     <use xlink:href="#DejaVuSans-45" x="69.824219"/>
     <use xlink:href="#DejaVuSans-55" x="133.007812"/>
    </g>
   </g>
   <g id="text_21">
    <!-- CHN -->
    <g transform="translate(350.234253 384.144796) scale(0.0833 -0.0833)">
     <use xlink:href="#DejaVuSans-43"/>
     <use xlink:href="#DejaVuSans-48" x="69.824219"/>
     <use xlink:href="#DejaVuSans-4e" x="145.019531"/>
    </g>
   </g>
   <g id="text_22">
    <!-- EAF -->
    <g transform="translate(407.255656 396.07712) scale(0.0833 -0.0833)">
     <use xlink:href="#DejaVuSans-45"/>
     <use xlink:href="#DejaVuSans-41" x="63.183594"/>
     <use xlink:href="#DejaVuSans-46" x="131.591797"/>
    </g>
   </g>
   <g id="text_23">
    <!-- IDN -->
    <g transform="translate(323.749856 164.99962) scale(0.0833 -0.0833)">
     <defs>
      <path id="DejaVuSans-49" d="M 628 4666 
L 1259 4666 
L 1259 0 
L 628 0 
L 628 4666 
z
" transform="scale(0.015625)"/>
     </defs>
     <use xlink:href="#DejaVuSans-49"/>
     <use xlink:href="#DejaVuSans-44" x="29.492188"/>
     <use xlink:href="#DejaVuSans-4e" x="106.494141"/>
    </g>
   </g>
   <g id="text_24">
    <!-- IND -->
    <g transform="translate(265.963222 418.803253) scale(0.0833 -0.0833)">
     <use xlink:href="#DejaVuSans-49"/>
     <use xlink:href="#DejaVuSans-4e" x="29.492188"/>
     <use xlink:href="#DejaVuSans-44" x="104.296875"/>
    </g>
   </g>
   <g id="text_25">
    <!-- JPN -->
    <g transform="translate(415.083517 451.899465) scale(0.0833 -0.0833)">
     <defs>
      <path id="DejaVuSans-4a" d="M 628 4666 
L 1259 4666 
L 1259 325 
Q 1259 -519 939 -900 
Q 619 -1281 -91 -1281 
L -331 -1281 
L -331 -750 
L -134 -750 
Q 284 -750 456 -515 
Q 628 -281 628 325 
L 628 4666 
z
" transform="scale(0.015625)"/>
     </defs>
     <use xlink:href="#DejaVuSans-4a"/>
     <use xlink:href="#DejaVuSans-50" x="29.492188"/>
     <use xlink:href="#DejaVuSans-4e" x="89.794922"/>
    </g>
   </g>
   <g id="text_26">
    <!-- KOR -->
    <g transform="translate(489.434177 484.771498) scale(0.0833 -0.0833)">
     <defs>
      <path id="DejaVuSans-4b" d="M 628 4666 
L 1259 4666 
L 1259 2694 
L 3353 4666 
L 4166 4666 
L 1850 2491 
L 4331 0 
L 3500 0 
L 1259 2247 
L 1259 0 
L 628 0 
L 628 4666 
z
" transform="scale(0.015625)"/>
     </defs>
     <use xlink:href="#DejaVuSans-4b"/>
     <use xlink:href="#DejaVuSans-4f" x="60.076172"/>
     <use xlink:href="#DejaVuSans-52" x="138.787109"/>
    </g>
   </g>
   <g id="text_27">
    <!-- ME -->
    <g transform="translate(479.226413 494.778559) scale(0.0833 -0.0833)">
     <defs>
      <path id="DejaVuSans-4d" d="M 628 4666 
L 1569 4666 
L 2759 1491 
L 3956 4666 
L 4897 4666 
L 4897 0 
L 4281 0 
L 4281 4097 
L 3078 897 
L 2444 897 
L 1241 4097 
L 1241 0 
L 628 0 
L 628 4666 
z
" transform="scale(0.015625)"/>
     </defs>
     <use xlink:href="#DejaVuSans-4d"/>
     <use xlink:href="#DejaVuSans-45" x="86.279297"/>
    </g>
   </g>
   <g id="text_28">
    <!-- MEX -->
    <g transform="translate(304.215261 281.695804) scale(0.0833 -0.0833)">
     <defs>
      <path id="DejaVuSans-58" d="M 403 4666 
L 1081 4666 
L 2241 2931 
L 3406 4666 
L 4084 4666 
L 2584 2425 
L 4184 0 
L 3506 0 
L 2194 1984 
L 872 0 
L 191 0 
L 1856 2491 
L 403 4666 
z
" transform="scale(0.015625)"/>
     </defs>
     <use xlink:href="#DejaVuSans-4d"/>
     <use xlink:href="#DejaVuSans-45" x="86.279297"/>
     <use xlink:href="#DejaVuSans-58" x="149.462891"/>
    </g>
   </g>
   <g id="text_29">
    <!-- NAF -->
    <g transform="translate(314.653114 466.767721) scale(0.0833 -0.0833)">
     <use xlink:href="#DejaVuSans-4e"/>
     <use xlink:href="#DejaVuSans-41" x="74.804688"/>
     <use xlink:href="#DejaVuSans-46" x="143.212891"/>
    </g>
   </g>
   <g id="text_30">
    <!-- OCE -->
    <g transform="translate(201.873677 237.438286) scale(0.0833 -0.0833)">
     <use xlink:href="#DejaVuSans-4f"/>
     <use xlink:href="#DejaVuSans-43" x="78.710938"/>
     <use xlink:href="#DejaVuSans-45" x="148.535156"/>
    </g>
   </g>
   <g id="text_31">
    <!-- RCAM -->
    <g transform="translate(295.299034 150.192342) scale(0.0833 -0.0833)">
     <use xlink:href="#DejaVuSans-52"/>
     <use xlink:href="#DejaVuSans-43" x="64.482422"/>
     <use xlink:href="#DejaVuSans-41" x="134.306641"/>
     <use xlink:href="#DejaVuSans-4d" x="202.714844"/>
    </g>
   </g>
   <g id="text_32">
    <!-- RSAF -->
    <g transform="translate(140.728072 143.250186) scale(0.0833 -0.0833)">
     <defs>
      <path id="DejaVuSans-53" d="M 3425 4513 
L 3425 3897 
Q 3066 4069 2747 4153 
Q 2428 4238 2131 4238 
Q 1616 4238 1336 4038 
Q 1056 3838 1056 3469 
Q 1056 3159 1242 3001 
Q 1428 2844 1947 2747 
L 2328 2669 
Q 3034 2534 3370 2195 
Q 3706 1856 3706 1288 
Q 3706 609 3251 259 
Q 2797 -91 1919 -91 
Q 1588 -91 1214 -16 
Q 841 59 441 206 
L 441 856 
Q 825 641 1194 531 
Q 1563 422 1919 422 
Q 2459 422 2753 634 
Q 3047 847 3047 1241 
Q 3047 1584 2836 1778 
Q 2625 1972 2144 2069 
L 1759 2144 
Q 1053 2284 737 2584 
Q 422 2884 422 3419 
Q 422 4038 858 4394 
Q 1294 4750 2059 4750 
Q 2388 4750 2728 4690 
Q 3069 4631 3425 4513 
z
" transform="scale(0.015625)"/>
     </defs>
     <use xlink:href="#DejaVuSans-52"/>
     <use xlink:href="#DejaVuSans-53" x="69.482422"/>
     <use xlink:href="#DejaVuSans-41" x="134.833984"/>
     <use xlink:href="#DejaVuSans-46" x="203.242188"/>
    </g>
   </g>
   <g id="text_33">
    <!-- RSAM -->
    <g transform="translate(127.121597 145.035013) scale(0.0833 -0.0833)">
     <use xlink:href="#DejaVuSans-52"/>
     <use xlink:href="#DejaVuSans-53" x="69.482422"/>
     <use xlink:href="#DejaVuSans-41" x="134.833984"/>
     <use xlink:href="#DejaVuSans-4d" x="203.242188"/>
    </g>
   </g>
   <g id="text_34">
    <!-- RSAS -->
    <g transform="translate(134.335886 334.856294) scale(0.0833 -0.0833)">
     <use xlink:href="#DejaVuSans-52"/>
     <use xlink:href="#DejaVuSans-53" x="69.482422"/>
     <use xlink:href="#DejaVuSans-41" x="134.833984"/>
     <use xlink:href="#DejaVuSans-53" x="203.242188"/>
    </g>
   </g>
   <g id="text_35">
    <!-- RUS -->
    <g transform="translate(232.195979 470.894842) scale(0.0833 -0.0833)">
     <use xlink:href="#DejaVuSans-52"/>
     <use xlink:href="#DejaVuSans-55" x="69.482422"/>
     <use xlink:href="#DejaVuSans-53" x="142.675781"/>
    </g>
   </g>
   <g id="text_36">
    <!-- SEAS -->
    <g transform="translate(255.903573 133.453442) scale(0.0833 -0.0833)">
     <use xlink:href="#DejaVuSans-53"/>
     <use xlink:href="#DejaVuSans-45" x="63.476562"/>
     <use xlink:href="#DejaVuSans-41" x="126.660156"/>
     <use xlink:href="#DejaVuSans-53" x="195.068359"/>
    </g>
   </g>
   <g id="text_37">
    <!-- STAN -->
    <g transform="translate(255.626695 418.479275) scale(0.0833 -0.0833)">
     <defs>
      <path id="DejaVuSans-54" d="M -19 4666 
L 3928 4666 
L 3928 4134 
L 2272 4134 
L 2272 0 
L 1638 0 
L 1638 4134 
L -19 4134 
L -19 4666 
z
" transform="scale(0.015625)"/>
     </defs>
     <use xlink:href="#DejaVuSans-53"/>
     <use xlink:href="#DejaVuSans-54" x="63.476562"/>
     <use xlink:href="#DejaVuSans-41" x="116.810547"/>
     <use xlink:href="#DejaVuSans-4e" x="185.21875"/>
    </g>
   </g>
   <g id="text_38">
    <!-- TUR -->
    <g transform="translate(357.833606 349.450234) scale(0.0833 -0.0833)">
     <use xlink:href="#DejaVuSans-54"/>
     <use xlink:href="#DejaVuSans-55" x="61.083984"/>
     <use xlink:href="#DejaVuSans-52" x="134.277344"/>
    </g>
   </g>
   <g id="text_39">
    <!-- UKR -->
    <g transform="translate(158.321622 222.400521) scale(0.0833 -0.0833)">
     <use xlink:href="#DejaVuSans-55"/>
     <use xlink:href="#DejaVuSans-4b" x="73.193359"/>
     <use xlink:href="#DejaVuSans-52" x="138.769531"/>
    </g>
   </g>
   <g id="text_40">
    <!-- USA -->
    <g transform="translate(154.98155 348.360103) scale(0.0833 -0.0833)">
     <use xlink:href="#DejaVuSans-55"/>
     <use xlink:href="#DejaVuSans-53" x="73.193359"/>
     <use xlink:href="#DejaVuSans-41" x="138.544922"/>
    </g>
   </g>
   <g id="text_41">
    <!-- WAF -->
    <g transform="translate(84.945748 300.73241) scale(0.0833 -0.0833)">
     <defs>
      <path id="DejaVuSans-57" d="M 213 4666 
L 850 4666 
L 1831 722 
L 2809 4666 
L 3519 4666 
L 4500 722 
L 5478 4666 
L 6119 4666 
L 4947 0 
L 4153 0 
L 3169 4050 
L 2175 0 
L 1381 0 
L 213 4666 
z
" transform="scale(0.015625)"/>
     </defs>
     <use xlink:href="#DejaVuSans-57"/>
     <use xlink:href="#DejaVuSans-41" x="93.376953"/>
     <use xlink:href="#DejaVuSans-46" x="161.785156"/>
    </g>
   </g>
   <g id="text_42">
    <!-- WEU -->
    <g transform="translate(295.623213 354.946364) scale(0.0833 -0.0833)">
     <use xlink:href="#DejaVuSans-57"/>
     <use xlink:href="#DejaVuSans-45" x="98.876953"/>
     <use xlink:href="#DejaVuSans-55" x="162.060547"/>
    </g>
   </g>
   <g id="text_43">
    <!-- ZAF -->
    <g transform="translate(151.573328 221.754467) scale(0.0833 -0.0833)">
     <defs>
      <path id="DejaVuSans-5a" d="M 359 4666 
L 4025 4666 
L 4025 4184 
L 1075 531 
L 4097 531 
L 4097 0 
L 288 0 
L 288 481 
L 3238 4134 
L 359 4134 
L 359 4666 
z
" transform="scale(0.015625)"/>
     </defs>
     <use xlink:href="#DejaVuSans-5a"/>
     <use xlink:href="#DejaVuSans-41" x="68.505859"/>
     <use xlink:href="#DejaVuSans-46" x="136.914062"/>
    </g>
   </g>
   <g id="legend_1">
    <g id="line2d_28"/>
    <g id="text_44">
     <!-- plastics_health_intensity -->
     <g transform="translate(654.361875 63.542438) scale(0.1 -0.1)">
      <defs>
       <path id="DejaVuSans-70" d="M 1159 525 
L 1159 -1331 
L 581 -1331 
L 581 3500 
L 1159 3500 
L 1159 2969 
Q 1341 3281 1617 3432 
Q 1894 3584 2278 3584 
Q 2916 3584 3314 3078 
Q 3713 2572 3713 1747 
Q 3713 922 3314 415 
Q 2916 -91 2278 -91 
Q 1894 -91 1617 61 
Q 1341 213 1159 525 
z
M 3116 1747 
Q 3116 2381 2855 2742 
Q 2594 3103 2138 3103 
Q 1681 3103 1420 2742 
Q 1159 2381 1159 1747 
Q 1159 1113 1420 752 
Q 1681 391 2138 391 
Q 2594 391 2855 752 
Q 3116 1113 3116 1747 
z
" transform="scale(0.015625)"/>
       <path id="DejaVuSans-61" d="M 2194 1759 
Q 1497 1759 1228 1600 
Q 959 1441 959 1056 
Q 959 750 1161 570 
Q 1363 391 1709 391 
Q 2188 391 2477 730 
Q 2766 1069 2766 1631 
L 2766 1759 
L 2194 1759 
z
M 3341 1997 
L 3341 0 
L 2766 0 
L 2766 531 
Q 2569 213 2275 61 
Q 1981 -91 1556 -91 
Q 1019 -91 701 211 
Q 384 513 384 1019 
Q 384 1609 779 1909 
Q 1175 2209 1959 2209 
L 2766 2209 
L 2766 2266 
Q 2766 2663 2505 2880 
Q 2244 3097 1772 3097 
Q 1472 3097 1187 3025 
Q 903 2953 641 2809 
L 641 3341 
Q 956 3463 1253 3523 
Q 1550 3584 1831 3584 
Q 2591 3584 2966 3190 
Q 3341 2797 3341 1997 
z
" transform="scale(0.015625)"/>
       <path id="DejaVuSans-63" d="M 3122 3366 
L 3122 2828 
Q 2878 2963 2633 3030 
Q 2388 3097 2138 3097 
Q 1578 3097 1268 2742 
Q 959 2388 959 1747 
Q 959 1106 1268 751 
Q 1578 397 2138 397 
Q 2388 397 2633 464 
Q 2878 531 3122 666 
L 3122 134 
Q 2881 22 2623 -34 
Q 2366 -91 2075 -91 
Q 1284 -91 818 406 
Q 353 903 353 1747 
Q 353 2603 823 3093 
Q 1294 3584 2113 3584 
Q 2378 3584 2631 3529 
Q 2884 3475 3122 3366 
z
" transform="scale(0.015625)"/>
       <path id="DejaVuSans-5f" d="M 3263 -1063 
L 3263 -1509 
L -63 -1509 
L -63 -1063 
L 3263 -1063 
z
" transform="scale(0.015625)"/>
       <path id="DejaVuSans-68" d="M 3513 2113 
L 3513 0 
L 2938 0 
L 2938 2094 
Q 2938 2591 2744 2837 
Q 2550 3084 2163 3084 
Q 1697 3084 1428 2787 
Q 1159 2491 1159 1978 
L 1159 0 
L 581 0 
L 581 4863 
L 1159 4863 
L 1159 2956 
Q 1366 3272 1645 3428 
Q 1925 3584 2291 3584 
Q 2894 3584 3203 3211 
Q 3513 2838 3513 2113 
z
" transform="scale(0.015625)"/>
      </defs>
      <use xlink:href="#DejaVuSans-70"/>
      <use xlink:href="#DejaVuSans-6c" x="63.476562"/>
      <use xlink:href="#DejaVuSans-61" x="91.259766"/>
      <use xlink:href="#DejaVuSans-73" x="152.539062"/>
      <use xlink:href="#DejaVuSans-74" x="204.638672"/>
      <use xlink:href="#DejaVuSans-69" x="243.847656"/>
      <use xlink:href="#DejaVuSans-63" x="271.630859"/>
      <use xlink:href="#DejaVuSans-73" x="326.611328"/>
      <use xlink:href="#DejaVuSans-5f" x="378.710938"/>
      <use xlink:href="#DejaVuSans-68" x="428.710938"/>
      <use xlink:href="#DejaVuSans-65" x="492.089844"/>
      <use xlink:href="#DejaVuSans-61" x="553.613281"/>
      <use xlink:href="#DejaVuSans-6c" x="614.892578"/>
      <use xlink:href="#DejaVuSans-74" x="642.675781"/>
      <use xlink:href="#DejaVuSans-68" x="681.884766"/>
      <use xlink:href="#DejaVuSans-5f" x="745.263672"/>
      <use xlink:href="#DejaVuSans-69" x="795.263672"/>
      <use xlink:href="#DejaVuSans-6e" x="823.046875"/>
      <use xlink:href="#DejaVuSans-74" x="886.425781"/>
      <use xlink:href="#DejaVuSans-65" x="925.634766"/>
      <use xlink:href="#DejaVuSans-6e" x="987.158203"/>
      <use xlink:href="#DejaVuSans-73" x="1050.537109"/>
      <use xlink:href="#DejaVuSans-69" x="1102.636719"/>
      <use xlink:href="#DejaVuSans-74" x="1130.419922"/>
      <use xlink:href="#DejaVuSans-79" x="1169.628906"/>
     </g>
    </g>
    <g id="line2d_29">
     <defs>
      <path id="m0d509ae701" d="M 0 3 
C 0.795609 3 1.55874 2.683901 2.12132 2.12132 
C 2.683901 1.55874 3 0.795609 3 0 
C 3 -0.795609 2.683901 -1.55874 2.12132 -2.12132 
C 1.55874 -2.683901 0.795609 -3 0 -3 
C -0.795609 -3 -1.55874 -2.683901 -2.12132 -2.12132 
C -2.683901 -1.55874 -3 -0.795609 -3 0 
C -3 0.795609 -2.683901 1.55874 -2.12132 2.12132 
C -1.55874 2.683901 -0.795609 3 0 3 
z
" style="stroke: #ffffff; stroke-opacity: 0.8; stroke-width: 1.441454"/>
     </defs>
     <g>
      <use xlink:href="#m0d509ae701" x="636.361875" y="74.998688" style="fill: #cacfe4; fill-opacity: 0.8; stroke: #ffffff; stroke-opacity: 0.8; stroke-width: 1.441454"/>
     </g>
    </g>
    <g id="text_45">
     <!-- 0.000001 -->
     <g transform="translate(654.361875 78.498688) scale(0.1 -0.1)">
      <use xlink:href="#DejaVuSans-30"/>
      <use xlink:href="#DejaVuSans-2e" x="63.623047"/>
      <use xlink:href="#DejaVuSans-30" x="95.410156"/>
      <use xlink:href="#DejaVuSans-30" x="159.033203"/>
      <use xlink:href="#DejaVuSans-30" x="222.65625"/>
      <use xlink:href="#DejaVuSans-30" x="286.279297"/>
      <use xlink:href="#DejaVuSans-30" x="349.902344"/>
      <use xlink:href="#DejaVuSans-31" x="413.525391"/>
     </g>
    </g>
    <g id="line2d_30">
     <defs>
      <path id="me0525f7776" d="M 0 3 
C 0.795609 3 1.55874 2.683901 2.12132 2.12132 
C 2.683901 1.55874 3 0.795609 3 0 
C 3 -0.795609 2.683901 -1.55874 2.12132 -2.12132 
C 1.55874 -2.683901 0.795609 -3 0 -3 
C -0.795609 -3 -1.55874 -2.683901 -2.12132 -2.12132 
C -2.683901 -1.55874 -3 -0.795609 -3 0 
C -3 0.795609 -2.683901 1.55874 -2.12132 2.12132 
C -1.55874 2.683901 -0.795609 3 0 3 
z
" style="stroke: #ffffff; stroke-opacity: 0.8; stroke-width: 1.441454"/>
     </defs>
     <g>
      <use xlink:href="#me0525f7776" x="636.361875" y="89.676812" style="fill: #a9b2d3; fill-opacity: 0.8; stroke: #ffffff; stroke-opacity: 0.8; stroke-width: 1.441454"/>
     </g>
    </g>
    <g id="text_46">
     <!-- 0.000002 -->
     <g transform="translate(654.361875 93.176812) scale(0.1 -0.1)">
      <use xlink:href="#DejaVuSans-30"/>
      <use xlink:href="#DejaVuSans-2e" x="63.623047"/>
      <use xlink:href="#DejaVuSans-30" x="95.410156"/>
      <use xlink:href="#DejaVuSans-30" x="159.033203"/>
      <use xlink:href="#DejaVuSans-30" x="222.65625"/>
      <use xlink:href="#DejaVuSans-30" x="286.279297"/>
      <use xlink:href="#DejaVuSans-30" x="349.902344"/>
      <use xlink:href="#DejaVuSans-32" x="413.525391"/>
     </g>
    </g>
    <g id="line2d_31">
     <defs>
      <path id="m9c8cba0ce9" d="M 0 3 
C 0.795609 3 1.55874 2.683901 2.12132 2.12132 
C 2.683901 1.55874 3 0.795609 3 0 
C 3 -0.795609 2.683901 -1.55874 2.12132 -2.12132 
C 1.55874 -2.683901 0.795609 -3 0 -3 
C -0.795609 -3 -1.55874 -2.683901 -2.12132 -2.12132 
C -2.683901 -1.55874 -3 -0.795609 -3 0 
C -3 0.795609 -2.683901 1.55874 -2.12132 2.12132 
C -1.55874 2.683901 -0.795609 3 0 3 
z
" style="stroke: #ffffff; stroke-opacity: 0.8; stroke-width: 1.441454"/>
     </defs>
     <g>
      <use xlink:href="#m9c8cba0ce9" x="636.361875" y="104.354938" style="fill: #8795c2; fill-opacity: 0.8; stroke: #ffffff; stroke-opacity: 0.8; stroke-width: 1.441454"/>
     </g>
    </g>
    <g id="text_47">
     <!-- 0.000003 -->
     <g transform="translate(654.361875 107.854938) scale(0.1 -0.1)">
      <defs>
       <path id="DejaVuSans-33" d="M 2597 2516 
Q 3050 2419 3304 2112 
Q 3559 1806 3559 1356 
Q 3559 666 3084 287 
Q 2609 -91 1734 -91 
Q 1441 -91 1130 -33 
Q 819 25 488 141 
L 488 750 
Q 750 597 1062 519 
Q 1375 441 1716 441 
Q 2309 441 2620 675 
Q 2931 909 2931 1356 
Q 2931 1769 2642 2001 
Q 2353 2234 1838 2234 
L 1294 2234 
L 1294 2753 
L 1863 2753 
Q 2328 2753 2575 2939 
Q 2822 3125 2822 3475 
Q 2822 3834 2567 4026 
Q 2313 4219 1838 4219 
Q 1578 4219 1281 4162 
Q 984 4106 628 3988 
L 628 4550 
Q 988 4650 1302 4700 
Q 1616 4750 1894 4750 
Q 2613 4750 3031 4423 
Q 3450 4097 3450 3541 
Q 3450 3153 3228 2886 
Q 3006 2619 2597 2516 
z
" transform="scale(0.015625)"/>
      </defs>
      <use xlink:href="#DejaVuSans-30"/>
      <use xlink:href="#DejaVuSans-2e" x="63.623047"/>
      <use xlink:href="#DejaVuSans-30" x="95.410156"/>
      <use xlink:href="#DejaVuSans-30" x="159.033203"/>
      <use xlink:href="#DejaVuSans-30" x="222.65625"/>
      <use xlink:href="#DejaVuSans-30" x="286.279297"/>
      <use xlink:href="#DejaVuSans-30" x="349.902344"/>
      <use xlink:href="#DejaVuSans-33" x="413.525391"/>
     </g>
    </g>
    <g id="line2d_32">
     <defs>
      <path id="md6d175f480" d="M 0 3 
C 0.795609 3 1.55874 2.683901 2.12132 2.12132 
C 2.683901 1.55874 3 0.795609 3 0 
C 3 -0.795609 2.683901 -1.55874 2.12132 -2.12132 
C 1.55874 -2.683901 0.795609 -3 0 -3 
C -0.795609 -3 -1.55874 -2.683901 -2.12132 -2.12132 
C -2.683901 -1.55874 -3 -0.795609 -3 0 
C -3 0.795609 -2.683901 1.55874 -2.12132 2.12132 
C -1.55874 2.683901 -0.795609 3 0 3 
z
" style="stroke: #ffffff; stroke-opacity: 0.8; stroke-width: 1.441454"/>
     </defs>
     <g>
      <use xlink:href="#md6d175f480" x="636.361875" y="119.033063" style="fill: #6679b1; fill-opacity: 0.8; stroke: #ffffff; stroke-opacity: 0.8; stroke-width: 1.441454"/>
     </g>
    </g>
    <g id="text_48">
     <!-- 0.000004 -->
     <g transform="translate(654.361875 122.533063) scale(0.1 -0.1)">
      <use xlink:href="#DejaVuSans-30"/>
      <use xlink:href="#DejaVuSans-2e" x="63.623047"/>
      <use xlink:href="#DejaVuSans-30" x="95.410156"/>
      <use xlink:href="#DejaVuSans-30" x="159.033203"/>
      <use xlink:href="#DejaVuSans-30" x="222.65625"/>
      <use xlink:href="#DejaVuSans-30" x="286.279297"/>
      <use xlink:href="#DejaVuSans-30" x="349.902344"/>
      <use xlink:href="#DejaVuSans-34" x="413.525391"/>
     </g>
    </g>
    <g id="line2d_33">
     <defs>
      <path id="mdbbf857134" d="M 0 3 
C 0.795609 3 1.55874 2.683901 2.12132 2.12132 
C 2.683901 1.55874 3 0.795609 3 0 
C 3 -0.795609 2.683901 -1.55874 2.12132 -2.12132 
C 1.55874 -2.683901 0.795609 -3 0 -3 
C -0.795609 -3 -1.55874 -2.683901 -2.12132 -2.12132 
C -2.683901 -1.55874 -3 -0.795609 -3 0 
C -3 0.795609 -2.683901 1.55874 -2.12132 2.12132 
C -1.55874 2.683901 -0.795609 3 0 3 
z
" style="stroke: #ffffff; stroke-opacity: 0.8; stroke-width: 1.441454"/>
     </defs>
     <g>
      <use xlink:href="#mdbbf857134" x="636.361875" y="133.711188" style="fill: #445ca0; fill-opacity: 0.8; stroke: #ffffff; stroke-opacity: 0.8; stroke-width: 1.441454"/>
     </g>
    </g>
    <g id="text_49">
     <!-- 0.000005 -->
     <g transform="translate(654.361875 137.211188) scale(0.1 -0.1)">
      <use xlink:href="#DejaVuSans-30"/>
      <use xlink:href="#DejaVuSans-2e" x="63.623047"/>
      <use xlink:href="#DejaVuSans-30" x="95.410156"/>
      <use xlink:href="#DejaVuSans-30" x="159.033203"/>
      <use xlink:href="#DejaVuSans-30" x="222.65625"/>
      <use xlink:href="#DejaVuSans-30" x="286.279297"/>
      <use xlink:href="#DejaVuSans-30" x="349.902344"/>
      <use xlink:href="#DejaVuSans-35" x="413.525391"/>
     </g>
    </g>
    <g id="line2d_34"/>
    <g id="text_50">
     <!-- plastic_production -->
     <g transform="translate(654.361875 151.889313) scale(0.1 -0.1)">
      <defs>
       <path id="DejaVuSans-75" d="M 544 1381 
L 544 3500 
L 1119 3500 
L 1119 1403 
Q 1119 906 1312 657 
Q 1506 409 1894 409 
Q 2359 409 2629 706 
Q 2900 1003 2900 1516 
L 2900 3500 
L 3475 3500 
L 3475 0 
L 2900 0 
L 2900 538 
Q 2691 219 2414 64 
Q 2138 -91 1772 -91 
Q 1169 -91 856 284 
Q 544 659 544 1381 
z
M 1991 3584 
L 1991 3584 
z
" transform="scale(0.015625)"/>
      </defs>
      <use xlink:href="#DejaVuSans-70"/>
      <use xlink:href="#DejaVuSans-6c" x="63.476562"/>
      <use xlink:href="#DejaVuSans-61" x="91.259766"/>
      <use xlink:href="#DejaVuSans-73" x="152.539062"/>
      <use xlink:href="#DejaVuSans-74" x="204.638672"/>
      <use xlink:href="#DejaVuSans-69" x="243.847656"/>
      <use xlink:href="#DejaVuSans-63" x="271.630859"/>
      <use xlink:href="#DejaVuSans-5f" x="326.611328"/>
      <use xlink:href="#DejaVuSans-70" x="376.611328"/>
      <use xlink:href="#DejaVuSans-72" x="440.087891"/>
      <use xlink:href="#DejaVuSans-6f" x="478.951172"/>
      <use xlink:href="#DejaVuSans-64" x="540.132812"/>
      <use xlink:href="#DejaVuSans-75" x="603.609375"/>
      <use xlink:href="#DejaVuSans-63" x="666.988281"/>
      <use xlink:href="#DejaVuSans-74" x="721.96875"/>
      <use xlink:href="#DejaVuSans-69" x="761.177734"/>
      <use xlink:href="#DejaVuSans-6f" x="788.960938"/>
      <use xlink:href="#DejaVuSans-6e" x="850.142578"/>
     </g>
    </g>
    <g id="line2d_35">
     <defs>
      <path id="m59393ff8e4" d="M 0 13.656218 
C 3.621671 13.656218 7.095496 12.217312 9.656404 9.656404 
C 12.217312 7.095496 13.656218 3.621671 13.656218 0 
C 13.656218 -3.621671 12.217312 -7.095496 9.656404 -9.656404 
C 7.095496 -12.217312 3.621671 -13.656218 0 -13.656218 
C -3.621671 -13.656218 -7.095496 -12.217312 -9.656404 -9.656404 
C -12.217312 -7.095496 -13.656218 -3.621671 -13.656218 0 
C -13.656218 3.621671 -12.217312 7.095496 -9.656404 9.656404 
C -7.095496 12.217312 -3.621671 13.656218 0 13.656218 
z
" style="stroke: #ffffff; stroke-opacity: 0.8; stroke-width: 1.441454"/>
     </defs>
     <g>
      <use xlink:href="#m59393ff8e4" x="636.361875" y="163.345563" style="fill: #333333; fill-opacity: 0.8; stroke: #ffffff; stroke-opacity: 0.8; stroke-width: 1.441454"/>
     </g>
    </g>
    <g id="text_51">
     <!-- 40 -->
     <g transform="translate(654.361875 166.845563) scale(0.1 -0.1)">
      <use xlink:href="#DejaVuSans-34"/>
      <use xlink:href="#DejaVuSans-30" x="63.623047"/>
     </g>
    </g>
    <g id="line2d_36">
     <defs>
      <path id="m6e84c535da" d="M 0 17.71339 
C 4.697646 17.71339 9.203521 15.846996 12.525258 12.525258 
C 15.846996 9.203521 17.71339 4.697646 17.71339 0 
C 17.71339 -4.697646 15.846996 -9.203521 12.525258 -12.525258 
C 9.203521 -15.846996 4.697646 -17.71339 0 -17.71339 
C -4.697646 -17.71339 -9.203521 -15.846996 -12.525258 -12.525258 
C -15.846996 -9.203521 -17.71339 -4.697646 -17.71339 0 
C -17.71339 4.697646 -15.846996 9.203521 -12.525258 12.525258 
C -9.203521 15.846996 -4.697646 17.71339 0 17.71339 
z
" style="stroke: #ffffff; stroke-opacity: 0.8; stroke-width: 1.441454"/>
     </defs>
     <g>
      <use xlink:href="#m6e84c535da" x="636.361875" y="178.023688" style="fill: #333333; fill-opacity: 0.8; stroke: #ffffff; stroke-opacity: 0.8; stroke-width: 1.441454"/>
     </g>
    </g>
    <g id="text_52">
     <!-- 80 -->
     <g transform="translate(654.361875 181.523688) scale(0.1 -0.1)">
      <use xlink:href="#DejaVuSans-38"/>
      <use xlink:href="#DejaVuSans-30" x="63.623047"/>
     </g>
    </g>
    <g id="line2d_37">
     <defs>
      <path id="m40b37d9ded" d="M 0 21.00086 
C 5.569493 21.00086 10.911624 18.788077 14.84985 14.84985 
C 18.788077 10.911624 21.00086 5.569493 21.00086 0 
C 21.00086 -5.569493 18.788077 -10.911624 14.84985 -14.84985 
C 10.911624 -18.788077 5.569493 -21.00086 0 -21.00086 
C -5.569493 -21.00086 -10.911624 -18.788077 -14.84985 -14.84985 
C -18.788077 -10.911624 -21.00086 -5.569493 -21.00086 0 
C -21.00086 5.569493 -18.788077 10.911624 -14.84985 14.84985 
C -10.911624 18.788077 -5.569493 21.00086 0 21.00086 
z
" style="stroke: #ffffff; stroke-opacity: 0.8; stroke-width: 1.441454"/>
     </defs>
     <g>
      <use xlink:href="#m40b37d9ded" x="636.361875" y="192.701813" style="fill: #333333; fill-opacity: 0.8; stroke: #ffffff; stroke-opacity: 0.8; stroke-width: 1.441454"/>
     </g>
    </g>
    <g id="text_53">
     <!-- 120 -->
     <g transform="translate(654.361875 196.201813) scale(0.1 -0.1)">
      <use xlink:href="#DejaVuSans-31"/>
      <use xlink:href="#DejaVuSans-32" x="63.623047"/>
      <use xlink:href="#DejaVuSans-30" x="127.246094"/>
     </g>
    </g>
    <g id="line2d_38">
     <defs>
      <path id="mffe2d7685c" d="M 0 23.839212 
C 6.322233 23.839212 12.386375 21.327362 16.856868 16.856868 
C 21.327362 12.386375 23.839212 6.322233 23.839212 0 
C 23.839212 -6.322233 21.327362 -12.386375 16.856868 -16.856868 
C 12.386375 -21.327362 6.322233 -23.839212 0 -23.839212 
C -6.322233 -23.839212 -12.386375 -21.327362 -16.856868 -16.856868 
C -21.327362 -12.386375 -23.839212 -6.322233 -23.839212 0 
C -23.839212 6.322233 -21.327362 12.386375 -16.856868 16.856868 
C -12.386375 21.327362 -6.322233 23.839212 0 23.839212 
z
" style="stroke: #ffffff; stroke-opacity: 0.8; stroke-width: 1.441454"/>
     </defs>
     <g>
      <use xlink:href="#mffe2d7685c" x="636.361875" y="207.379937" style="fill: #333333; fill-opacity: 0.8; stroke: #ffffff; stroke-opacity: 0.8; stroke-width: 1.441454"/>
     </g>
    </g>
    <g id="text_54">
     <!-- 160 -->
     <g transform="translate(654.361875 210.879937) scale(0.1 -0.1)">
      <use xlink:href="#DejaVuSans-31"/>
      <use xlink:href="#DejaVuSans-36" x="63.623047"/>
      <use xlink:href="#DejaVuSans-30" x="127.246094"/>
     </g>
    </g>
    <g id="line2d_39">
     <defs>
      <path id="mebf47ac5b8" d="M 0 26.37385 
C 6.994427 26.37385 13.703321 23.594934 18.649128 18.649128 
C 23.594934 13.703321 26.37385 6.994427 26.37385 0 
C 26.37385 -6.994427 23.594934 -13.703321 18.649128 -18.649128 
C 13.703321 -23.594934 6.994427 -26.37385 0 -26.37385 
C -6.994427 -26.37385 -13.703321 -23.594934 -18.649128 -18.649128 
C -23.594934 -13.703321 -26.37385 -6.994427 -26.37385 0 
C -26.37385 6.994427 -23.594934 13.703321 -18.649128 18.649128 
C -13.703321 23.594934 -6.994427 26.37385 0 26.37385 
z
" style="stroke: #ffffff; stroke-opacity: 0.8; stroke-width: 1.441454"/>
     </defs>
     <g>
      <use xlink:href="#mebf47ac5b8" x="636.361875" y="222.058063" style="fill: #333333; fill-opacity: 0.8; stroke: #ffffff; stroke-opacity: 0.8; stroke-width: 1.441454"/>
     </g>
    </g>
    <g id="text_55">
     <!-- 200 -->
     <g transform="translate(654.361875 225.558063) scale(0.1 -0.1)">
      <use xlink:href="#DejaVuSans-32"/>
      <use xlink:href="#DejaVuSans-30" x="63.623047"/>
      <use xlink:href="#DejaVuSans-30" x="127.246094"/>
     </g>
    </g>
   </g>
  </g>
 </g>
 <defs>
  <clipPath id="pef726b205d">
   <rect x="72" y="69.12" width="446.4" height="443.52"/>
  </clipPath>
 </defs>
</svg>
